<?xml version="1.0" encoding="UTF-8" standalone="no"?>
<!DOCTYPE svg PUBLIC "-//W3C//DTD SVG 1.1//EN"
 "http://www.w3.org/Graphics/SVG/1.1/DTD/svg11.dtd">
<!-- Generated by graphviz version 2.43.0 (0)
 -->
<!-- Title: %3 Pages: 1 -->
<svg width="1672pt" height="508pt"
 viewBox="0.00 0.00 1672.01 508.00" xmlns="http://www.w3.org/2000/svg" xmlns:xlink="http://www.w3.org/1999/xlink">
<g id="graph0" class="graph" transform="scale(1 1) rotate(0) translate(4 504)">
<title>%3</title>
<polygon fill="white" stroke="transparent" points="-4,4 -4,-504 1668.01,-504 1668.01,4 -4,4"/>
<g id="clust1" class="cluster">
<title>cluster_../Emmoria/inc/component</title>
<polygon fill="none" stroke="black" points="778,-224 778,-276 1593,-276 1593,-224 778,-224"/>
</g>
<g id="clust2" class="cluster">
<title>cluster_../Emmoria/inc/core</title>
<polygon fill="none" stroke="black" points="543,-368 543,-420 663,-420 663,-368 543,-368"/>
</g>
<g id="clust3" class="cluster">
<title>cluster_../Emmoria/inc/loader</title>
<polygon fill="none" stroke="black" points="879,-8 879,-60 1063,-60 1063,-8 879,-8"/>
</g>
<g id="clust4" class="cluster">
<title>cluster_../Emmoria/inc/system</title>
<polygon fill="none" stroke="black" points="8,-224 8,-348 770,-348 770,-224 8,-224"/>
</g>
<g id="clust5" class="cluster">
<title>cluster_../Emmoria/inc/util</title>
<polygon fill="none" stroke="black" points="915,-80 915,-204 1456,-204 1456,-80 915,-80"/>
</g>
<g id="clust6" class="cluster">
<title>cluster_../Emmoria</title>
<polygon fill="none" stroke="black" points="1082,-440 1082,-492 1156,-492 1156,-440 1082,-440"/>
</g>
<!-- PositionComp -->
<g id="node1" class="node">
<title>PositionComp</title>
<ellipse fill="none" stroke="black" cx="1523" cy="-250" rx="61.99" ry="18"/>
<text text-anchor="middle" x="1523" y="-246.3" font-family="Times,serif" font-size="14.00">PositionComp</text>
</g>
<!-- Position -->
<g id="node2" class="node">
<title>Position</title>
<ellipse fill="none" stroke="black" cx="1135" cy="-178" rx="39.79" ry="18"/>
<text text-anchor="middle" x="1135" y="-174.3" font-family="Times,serif" font-size="14.00">Position</text>
</g>
<!-- PositionComp&#45;&gt;Position -->
<g id="edge1" class="edge">
<title>PositionComp&#45;&gt;Position</title>
<path fill="none" stroke="red" d="M1488.85,-234.92C1477.33,-230.73 1464.28,-226.57 1452,-224 1334.66,-199.43 1298.31,-236.81 1183,-204 1177.46,-202.43 1171.83,-200.17 1166.46,-197.66"/>
<polygon fill="red" stroke="red" points="1167.66,-194.34 1157.16,-192.93 1164.49,-200.58 1167.66,-194.34"/>
</g>
<!-- EnemyComp -->
<g id="node3" class="node">
<title>EnemyComp</title>
<ellipse fill="none" stroke="black" cx="1385" cy="-250" rx="57.69" ry="18"/>
<text text-anchor="middle" x="1385" y="-246.3" font-family="Times,serif" font-size="14.00">EnemyComp</text>
</g>
<!-- LoadComp -->
<g id="node4" class="node">
<title>LoadComp</title>
<ellipse fill="none" stroke="black" cx="837" cy="-250" rx="50.89" ry="18"/>
<text text-anchor="middle" x="837" y="-246.3" font-family="Times,serif" font-size="14.00">LoadComp</text>
</g>
<!-- MovieComp -->
<g id="node5" class="node">
<title>MovieComp</title>
<ellipse fill="none" stroke="black" cx="1125" cy="-250" rx="55.79" ry="18"/>
<text text-anchor="middle" x="1125" y="-246.3" font-family="Times,serif" font-size="14.00">MovieComp</text>
</g>
<!-- PlayerComp -->
<g id="node6" class="node">
<title>PlayerComp</title>
<ellipse fill="none" stroke="black" cx="1254" cy="-250" rx="55.49" ry="18"/>
<text text-anchor="middle" x="1254" y="-246.3" font-family="Times,serif" font-size="14.00">PlayerComp</text>
</g>
<!-- RenderableComp -->
<g id="node7" class="node">
<title>RenderableComp</title>
<ellipse fill="none" stroke="black" cx="978" cy="-250" rx="72.59" ry="18"/>
<text text-anchor="middle" x="978" y="-246.3" font-family="Times,serif" font-size="14.00">RenderableComp</text>
</g>
<!-- Application -->
<g id="node8" class="node">
<title>Application</title>
<ellipse fill="none" stroke="black" cx="603" cy="-394" rx="51.99" ry="18"/>
<text text-anchor="middle" x="603" y="-390.3" font-family="Times,serif" font-size="14.00">Application</text>
</g>
<!-- Size -->
<g id="node9" class="node">
<title>Size</title>
<ellipse fill="none" stroke="black" cx="1421" cy="-178" rx="27" ry="18"/>
<text text-anchor="middle" x="1421" y="-174.3" font-family="Times,serif" font-size="14.00">Size</text>
</g>
<!-- Application&#45;&gt;Size -->
<g id="edge2" class="edge">
<title>Application&#45;&gt;Size</title>
<path fill="none" stroke="red" d="M654.99,-392.11C812.28,-389.1 1281.43,-377.82 1431,-348 1525.29,-329.2 1579.47,-354.49 1635,-276 1648.35,-257.13 1649.56,-241.94 1635,-224 1613.14,-197.07 1513.46,-185.66 1458.19,-181.33"/>
<polygon fill="red" stroke="red" points="1458.32,-177.83 1448.09,-180.58 1457.8,-184.81 1458.32,-177.83"/>
</g>
<!-- MovementSys -->
<g id="node10" class="node">
<title>MovementSys</title>
<ellipse fill="none" stroke="black" cx="523" cy="-322" rx="62.29" ry="18"/>
<text text-anchor="middle" x="523" y="-318.3" font-family="Times,serif" font-size="14.00">MovementSys</text>
</g>
<!-- Application&#45;&gt;MovementSys -->
<g id="edge3" class="edge">
<title>Application&#45;&gt;MovementSys</title>
<path fill="none" stroke="red" d="M584.85,-377.12C574.36,-367.94 560.98,-356.23 549.35,-346.06"/>
<polygon fill="red" stroke="red" points="551.47,-343.26 541.64,-339.31 546.86,-348.53 551.47,-343.26"/>
</g>
<!-- PrintMovementSys -->
<g id="node11" class="node">
<title>PrintMovementSys</title>
<ellipse fill="none" stroke="black" cx="683" cy="-322" rx="79.09" ry="18"/>
<text text-anchor="middle" x="683" y="-318.3" font-family="Times,serif" font-size="14.00">PrintMovementSys</text>
</g>
<!-- Application&#45;&gt;PrintMovementSys -->
<g id="edge4" class="edge">
<title>Application&#45;&gt;PrintMovementSys</title>
<path fill="none" stroke="red" d="M621.15,-377.12C631.57,-368 644.83,-356.4 656.4,-346.28"/>
<polygon fill="red" stroke="red" points="658.86,-348.77 664.08,-339.55 654.25,-343.5 658.86,-348.77"/>
</g>
<!-- MovieRenderSys -->
<g id="node12" class="node">
<title>MovieRenderSys</title>
<ellipse fill="none" stroke="black" cx="88" cy="-322" rx="72.29" ry="18"/>
<text text-anchor="middle" x="88" y="-318.3" font-family="Times,serif" font-size="14.00">MovieRenderSys</text>
</g>
<!-- Application&#45;&gt;MovieRenderSys -->
<g id="edge5" class="edge">
<title>Application&#45;&gt;MovieRenderSys</title>
<path fill="none" stroke="red" d="M551.73,-390.94C470.02,-386.93 305.57,-375.87 169,-348 158.73,-345.9 147.9,-343.04 137.62,-339.99"/>
<polygon fill="red" stroke="red" points="138.56,-336.62 127.97,-337.04 136.51,-343.31 138.56,-336.62"/>
</g>
<!-- GameRenderSys -->
<g id="node13" class="node">
<title>GameRenderSys</title>
<ellipse fill="none" stroke="black" cx="372" cy="-322" rx="70.39" ry="18"/>
<text text-anchor="middle" x="372" y="-318.3" font-family="Times,serif" font-size="14.00">GameRenderSys</text>
</g>
<!-- Application&#45;&gt;GameRenderSys -->
<g id="edge6" class="edge">
<title>Application&#45;&gt;GameRenderSys</title>
<path fill="none" stroke="red" d="M564.79,-381.77C534.24,-372.75 490.33,-359.7 452,-348 443.11,-345.29 433.67,-342.37 424.52,-339.52"/>
<polygon fill="red" stroke="red" points="425.32,-336.1 414.73,-336.47 423.24,-342.79 425.32,-336.1"/>
</g>
<!-- LoadingSys -->
<g id="node14" class="node">
<title>LoadingSys</title>
<ellipse fill="none" stroke="black" cx="231" cy="-322" rx="52.79" ry="18"/>
<text text-anchor="middle" x="231" y="-318.3" font-family="Times,serif" font-size="14.00">LoadingSys</text>
</g>
<!-- Application&#45;&gt;LoadingSys -->
<g id="edge7" class="edge">
<title>Application&#45;&gt;LoadingSys</title>
<path fill="none" stroke="red" d="M552.59,-389.41C490.62,-384.14 382.65,-372.21 293,-348 285.68,-346.02 278.06,-343.43 270.77,-340.66"/>
<polygon fill="red" stroke="red" points="271.68,-337.25 261.09,-336.82 269.09,-343.76 271.68,-337.25"/>
</g>
<!-- ApplicationParameters -->
<g id="node21" class="node">
<title>ApplicationParameters</title>
<ellipse fill="none" stroke="black" cx="1284" cy="-178" rx="91.78" ry="18"/>
<text text-anchor="middle" x="1284" y="-174.3" font-family="Times,serif" font-size="14.00">ApplicationParameters</text>
</g>
<!-- Application&#45;&gt;ApplicationParameters -->
<g id="edge18" class="edge">
<title>Application&#45;&gt;ApplicationParameters</title>
<path fill="none" stroke="blue" d="M654.29,-390.99C851.25,-382.77 1551.29,-348.61 1616,-276 1631.38,-258.75 1631.62,-241.03 1616,-224 1598.59,-205.01 1410.41,-208.22 1385,-204 1371.72,-201.8 1357.62,-198.76 1344.29,-195.56"/>
<polygon fill="blue" stroke="blue" points="1344.83,-192.08 1334.28,-193.09 1343.15,-198.88 1344.83,-192.08"/>
</g>
<!-- MovementSys&#45;&gt;PositionComp -->
<g id="edge28" class="edge">
<title>MovementSys&#45;&gt;PositionComp</title>
<path fill="none" stroke="blue" d="M566.91,-309.17C576.13,-307.1 585.83,-305.22 595,-304 972.76,-253.74 1077.45,-346.33 1452,-276 1461.15,-274.28 1470.7,-271.58 1479.73,-268.59"/>
<polygon fill="blue" stroke="blue" points="1480.99,-271.85 1489.27,-265.25 1478.68,-265.25 1480.99,-271.85"/>
</g>
<!-- MovementSys&#45;&gt;MovieComp -->
<g id="edge26" class="edge">
<title>MovementSys&#45;&gt;MovieComp</title>
<path fill="none" stroke="blue" d="M567.32,-309.28C576.42,-307.23 585.98,-305.33 595,-304 799.84,-273.88 857.67,-319.9 1060,-276 1068.15,-274.23 1076.62,-271.6 1084.66,-268.7"/>
<polygon fill="blue" stroke="blue" points="1086.09,-271.9 1094.19,-265.07 1083.6,-265.36 1086.09,-271.9"/>
</g>
<!-- MovementSys&#45;&gt;PlayerComp -->
<g id="edge27" class="edge">
<title>MovementSys&#45;&gt;PlayerComp</title>
<path fill="none" stroke="blue" d="M567.31,-309.18C576.41,-307.14 585.97,-305.27 595,-304 857.17,-267.2 931.06,-331.11 1190,-276 1198.05,-274.29 1206.4,-271.68 1214.32,-268.79"/>
<polygon fill="blue" stroke="blue" points="1215.63,-272.04 1223.7,-265.16 1213.11,-265.51 1215.63,-272.04"/>
</g>
<!-- ISystem -->
<g id="node17" class="node">
<title>ISystem</title>
<ellipse fill="none" stroke="black" cx="500" cy="-250" rx="40.09" ry="18"/>
<text text-anchor="middle" x="500" y="-246.3" font-family="Times,serif" font-size="14.00">ISystem</text>
</g>
<!-- MovementSys&#45;&gt;ISystem -->
<g id="edge10" class="edge">
<title>MovementSys&#45;&gt;ISystem</title>
<path fill="none" stroke="red" d="M517.43,-304.05C514.84,-296.18 511.7,-286.62 508.8,-277.79"/>
<polygon fill="red" stroke="red" points="512.12,-276.68 505.68,-268.28 505.47,-278.87 512.12,-276.68"/>
</g>
<!-- PrintMovementSys&#45;&gt;PositionComp -->
<g id="edge34" class="edge">
<title>PrintMovementSys&#45;&gt;PositionComp</title>
<path fill="none" stroke="blue" d="M761.63,-319.19C930.21,-314.85 1321.71,-302.21 1452,-276 1461.03,-274.18 1470.47,-271.47 1479.42,-268.49"/>
<polygon fill="blue" stroke="blue" points="1480.59,-271.79 1488.88,-265.19 1478.28,-265.18 1480.59,-271.79"/>
</g>
<!-- PrintMovementSys&#45;&gt;PlayerComp -->
<g id="edge33" class="edge">
<title>PrintMovementSys&#45;&gt;PlayerComp</title>
<path fill="none" stroke="blue" d="M762.26,-320.87C862.99,-319.15 1041.6,-310.82 1190,-276 1197.84,-274.16 1205.99,-271.55 1213.75,-268.71"/>
<polygon fill="blue" stroke="blue" points="1215.24,-271.89 1223.32,-265.02 1212.73,-265.36 1215.24,-271.89"/>
</g>
<!-- PrintMovementSys&#45;&gt;ISystem -->
<g id="edge13" class="edge">
<title>PrintMovementSys&#45;&gt;ISystem</title>
<path fill="none" stroke="red" d="M644.19,-306.15C613.33,-294.35 570.33,-277.9 539.33,-266.05"/>
<polygon fill="red" stroke="red" points="540.31,-262.67 529.72,-262.37 537.81,-269.21 540.31,-262.67"/>
</g>
<!-- MovieRenderSys&#45;&gt;LoadComp -->
<g id="edge30" class="edge">
<title>MovieRenderSys&#45;&gt;LoadComp</title>
<path fill="none" stroke="blue" d="M138.78,-309.04C148.75,-307.06 159.16,-305.25 169,-304 436.02,-270.02 510.85,-332.64 774,-276 782.1,-274.26 790.5,-271.58 798.44,-268.62"/>
<polygon fill="blue" stroke="blue" points="799.82,-271.84 807.83,-264.91 797.24,-265.33 799.82,-271.84"/>
</g>
<!-- MovieRenderSys&#45;&gt;MovieComp -->
<g id="edge29" class="edge">
<title>MovieRenderSys&#45;&gt;MovieComp</title>
<path fill="none" stroke="blue" d="M138.33,-309.01C148.43,-307.01 159.01,-305.2 169,-304 365.69,-280.45 865.82,-315.22 1060,-276 1068.35,-274.31 1077.02,-271.66 1085.21,-268.71"/>
<polygon fill="blue" stroke="blue" points="1086.47,-271.97 1094.56,-265.13 1083.97,-265.44 1086.47,-271.97"/>
</g>
<!-- IGraphicsSystem -->
<g id="node16" class="node">
<title>IGraphicsSystem</title>
<ellipse fill="none" stroke="black" cx="229" cy="-250" rx="71.49" ry="18"/>
<text text-anchor="middle" x="229" y="-246.3" font-family="Times,serif" font-size="14.00">IGraphicsSystem</text>
</g>
<!-- MovieRenderSys&#45;&gt;IGraphicsSystem -->
<g id="edge11" class="edge">
<title>MovieRenderSys&#45;&gt;IGraphicsSystem</title>
<path fill="none" stroke="red" d="M118.94,-305.64C139.51,-295.43 166.73,-281.92 188.95,-270.88"/>
<polygon fill="red" stroke="red" points="190.73,-273.91 198.13,-266.33 187.62,-267.64 190.73,-273.91"/>
</g>
<!-- Mediamap -->
<g id="node18" class="node">
<title>Mediamap</title>
<ellipse fill="none" stroke="black" cx="1086" cy="-106" rx="49.29" ry="18"/>
<text text-anchor="middle" x="1086" y="-102.3" font-family="Times,serif" font-size="14.00">Mediamap</text>
</g>
<!-- MovieRenderSys&#45;&gt;Mediamap -->
<g id="edge12" class="edge">
<title>MovieRenderSys&#45;&gt;Mediamap</title>
<path fill="none" stroke="red" d="M138.8,-309.21C148.77,-307.21 159.18,-305.36 169,-304 260.56,-291.37 503.62,-321.63 584,-276 608.45,-262.12 597.35,-240.65 620,-224 644.01,-206.35 655.74,-213.47 684,-204 739.05,-185.56 750.78,-174.51 807,-160 903.36,-135.14 930.95,-146.04 1028,-124 1031.86,-123.12 1035.84,-122.14 1039.83,-121.09"/>
<polygon fill="red" stroke="red" points="1040.95,-124.41 1049.67,-118.39 1039.1,-117.66 1040.95,-124.41"/>
</g>
<!-- MediatoEntitymap -->
<g id="node19" class="node">
<title>MediatoEntitymap</title>
<ellipse fill="none" stroke="black" cx="1000" cy="-178" rx="77.19" ry="18"/>
<text text-anchor="middle" x="1000" y="-174.3" font-family="Times,serif" font-size="14.00">MediatoEntitymap</text>
</g>
<!-- MovieRenderSys&#45;&gt;MediatoEntitymap -->
<g id="edge32" class="edge">
<title>MovieRenderSys&#45;&gt;MediatoEntitymap</title>
<path fill="none" stroke="blue" d="M138.79,-309.17C148.76,-307.18 159.17,-305.33 169,-304 368.02,-277.08 422.93,-314.68 620,-276 690.89,-262.09 704.21,-242.65 774,-224 825.2,-210.32 883.94,-198.75 928.69,-190.76"/>
<polygon fill="blue" stroke="blue" points="929.36,-194.2 938.6,-189.01 928.14,-187.31 929.36,-194.2"/>
</g>
<!-- Entitymap -->
<g id="node20" class="node">
<title>Entitymap</title>
<ellipse fill="none" stroke="black" cx="971" cy="-106" rx="48.19" ry="18"/>
<text text-anchor="middle" x="971" y="-102.3" font-family="Times,serif" font-size="14.00">Entitymap</text>
</g>
<!-- MovieRenderSys&#45;&gt;Entitymap -->
<g id="edge31" class="edge">
<title>MovieRenderSys&#45;&gt;Entitymap</title>
<path fill="none" stroke="blue" d="M139.24,-309.17C149.07,-307.21 159.33,-305.37 169,-304 252.84,-292.17 473.77,-314.85 549,-276 575.65,-262.24 568.53,-242.66 592,-224 641.78,-184.42 659.95,-180.96 720,-160 785.83,-137.02 865.02,-122.32 916.61,-114.37"/>
<polygon fill="blue" stroke="blue" points="917.18,-117.83 926.54,-112.87 916.13,-110.91 917.18,-117.83"/>
</g>
<!-- GameRenderSys&#45;&gt;PositionComp -->
<g id="edge20" class="edge">
<title>GameRenderSys&#45;&gt;PositionComp</title>
<path fill="none" stroke="blue" d="M421.27,-309.07C431.38,-307.03 441.99,-305.19 452,-304 672.75,-277.68 1233.41,-316.52 1452,-276 1461.25,-274.29 1470.91,-271.56 1480.02,-268.53"/>
<polygon fill="blue" stroke="blue" points="1481.36,-271.76 1489.64,-265.15 1479.04,-265.16 1481.36,-271.76"/>
</g>
<!-- GameRenderSys&#45;&gt;PlayerComp -->
<g id="edge19" class="edge">
<title>GameRenderSys&#45;&gt;PlayerComp</title>
<path fill="none" stroke="blue" d="M421.28,-309.15C431.39,-307.1 442,-305.24 452,-304 777.73,-263.52 868.65,-342.87 1190,-276 1198.05,-274.32 1206.41,-271.74 1214.33,-268.85"/>
<polygon fill="blue" stroke="blue" points="1215.65,-272.09 1223.71,-265.22 1213.12,-265.56 1215.65,-272.09"/>
</g>
<!-- GameRenderSys&#45;&gt;RenderableComp -->
<g id="edge21" class="edge">
<title>GameRenderSys&#45;&gt;RenderableComp</title>
<path fill="none" stroke="blue" d="M421.73,-309.25C431.71,-307.23 442.15,-305.35 452,-304 648.34,-277.11 702.07,-311.69 897,-276 907.42,-274.09 918.39,-271.28 928.77,-268.22"/>
<polygon fill="blue" stroke="blue" points="929.97,-271.52 938.5,-265.24 927.92,-264.82 929.97,-271.52"/>
</g>
<!-- GameRenderSys&#45;&gt;IGraphicsSystem -->
<g id="edge8" class="edge">
<title>GameRenderSys&#45;&gt;IGraphicsSystem</title>
<path fill="none" stroke="red" d="M340.97,-305.81C320.03,-295.56 292.19,-281.93 269.51,-270.83"/>
<polygon fill="red" stroke="red" points="270.98,-267.65 260.46,-266.4 267.9,-273.94 270.98,-267.65"/>
</g>
<!-- GameRenderSys&#45;&gt;Mediamap -->
<g id="edge22" class="edge">
<title>GameRenderSys&#45;&gt;Mediamap</title>
<path fill="none" stroke="blue" d="M422.65,-309.48C432.36,-307.48 442.47,-305.56 452,-304 559.73,-286.41 593.5,-313.55 696,-276 735.12,-261.67 737.61,-244.28 774,-224 833.76,-190.7 850.06,-184.35 914,-160 936.89,-151.28 996.26,-133.36 1038.84,-120.78"/>
<polygon fill="blue" stroke="blue" points="1039.85,-124.13 1048.46,-117.95 1037.87,-117.42 1039.85,-124.13"/>
</g>
<!-- LoadingSys&#45;&gt;LoadComp -->
<g id="edge23" class="edge">
<title>LoadingSys&#45;&gt;LoadComp</title>
<path fill="none" stroke="blue" d="M268.76,-309.3C276.7,-307.22 285.07,-305.3 293,-304 504.31,-269.27 564.93,-322.3 774,-276 782.09,-274.21 790.49,-271.51 798.42,-268.55"/>
<polygon fill="blue" stroke="blue" points="799.8,-271.76 807.81,-264.83 797.23,-265.25 799.8,-271.76"/>
</g>
<!-- LoadingSys&#45;&gt;ISystem -->
<g id="edge9" class="edge">
<title>LoadingSys&#45;&gt;ISystem</title>
<path fill="none" stroke="red" d="M270.66,-310.02C278.08,-307.99 285.77,-305.92 293,-304 348.98,-289.16 413.67,-272.71 455.63,-262.13"/>
<polygon fill="red" stroke="red" points="456.68,-265.47 465.52,-259.64 454.97,-258.69 456.68,-265.47"/>
</g>
<!-- LoadingSys&#45;&gt;Entitymap -->
<g id="edge25" class="edge">
<title>LoadingSys&#45;&gt;Entitymap</title>
<path fill="none" stroke="blue" d="M269.13,-309.45C276.97,-307.38 285.21,-305.44 293,-304 419.91,-280.63 458.21,-312.44 582,-276 689.93,-244.23 703.13,-203.22 807,-160 845.31,-144.06 890.23,-129.84 923.36,-120.15"/>
<polygon fill="blue" stroke="blue" points="924.61,-123.43 933.25,-117.29 922.67,-116.71 924.61,-123.43"/>
</g>
<!-- LoadingSys&#45;&gt;ApplicationParameters -->
<g id="edge24" class="edge">
<title>LoadingSys&#45;&gt;ApplicationParameters</title>
<path fill="none" stroke="blue" d="M268.39,-309.16C276.43,-307.06 284.94,-305.17 293,-304 328.85,-298.78 1571.66,-301.89 1597,-276 1613.17,-259.48 1612.56,-241.09 1597,-224 1581.07,-206.5 1408.33,-207.96 1385,-204 1371.8,-201.76 1357.78,-198.72 1344.52,-195.53"/>
<polygon fill="blue" stroke="blue" points="1345.1,-192.07 1334.55,-193.08 1343.43,-198.87 1345.1,-192.07"/>
</g>
<!-- EntityLoaderFactory -->
<g id="node15" class="node">
<title>EntityLoaderFactory</title>
<ellipse fill="none" stroke="black" cx="971" cy="-34" rx="83.69" ry="18"/>
<text text-anchor="middle" x="971" y="-30.3" font-family="Times,serif" font-size="14.00">EntityLoaderFactory</text>
</g>
<!-- MediatoEntitymap&#45;&gt;Mediamap -->
<g id="edge14" class="edge">
<title>MediatoEntitymap&#45;&gt;Mediamap</title>
<path fill="none" stroke="red" d="M1020.38,-160.41C1031.87,-151.06 1046.37,-139.25 1058.82,-129.12"/>
<polygon fill="red" stroke="red" points="1061.11,-131.78 1066.65,-122.75 1056.69,-126.35 1061.11,-131.78"/>
</g>
<!-- MediatoEntitymap&#45;&gt;Entitymap -->
<g id="edge15" class="edge">
<title>MediatoEntitymap&#45;&gt;Entitymap</title>
<path fill="none" stroke="red" d="M992.98,-160.05C989.72,-152.18 985.76,-142.62 982.1,-133.79"/>
<polygon fill="red" stroke="red" points="985.22,-132.17 978.16,-124.28 978.75,-134.85 985.22,-132.17"/>
</g>
<!-- Entitymap&#45;&gt;EntityLoaderFactory -->
<g id="edge35" class="edge">
<title>Entitymap&#45;&gt;EntityLoaderFactory</title>
<path fill="none" stroke="blue" d="M971,-87.7C971,-79.98 971,-70.71 971,-62.11"/>
<polygon fill="blue" stroke="blue" points="974.5,-62.1 971,-52.1 967.5,-62.1 974.5,-62.1"/>
</g>
<!-- main -->
<g id="node22" class="node">
<title>main</title>
<ellipse fill="none" stroke="black" cx="1119" cy="-466" rx="28.7" ry="18"/>
<text text-anchor="middle" x="1119" y="-462.3" font-family="Times,serif" font-size="14.00">main</text>
</g>
<!-- main&#45;&gt;Application -->
<g id="edge17" class="edge">
<title>main&#45;&gt;Application</title>
<path fill="none" stroke="blue" d="M1091.26,-461.24C1009.96,-450.21 771.06,-417.8 660.43,-402.79"/>
<polygon fill="blue" stroke="blue" points="660.83,-399.31 650.45,-401.44 659.89,-406.25 660.83,-399.31"/>
</g>
<!-- main&#45;&gt;Size -->
<g id="edge16" class="edge">
<title>main&#45;&gt;Size</title>
<path fill="none" stroke="blue" d="M1146.3,-460.11C1247.87,-441.26 1600.74,-369.66 1654,-276 1665.42,-255.91 1668.71,-241.82 1654,-224 1629.57,-194.4 1517.29,-184.05 1457.97,-180.61"/>
<polygon fill="blue" stroke="blue" points="1458.06,-177.11 1447.88,-180.06 1457.68,-184.1 1458.06,-177.11"/>
</g>
</g>
</svg>
