<?xml version="1.0" encoding="UTF-8" standalone="no"?>
<!DOCTYPE svg PUBLIC "-//W3C//DTD SVG 1.1//EN"
 "http://www.w3.org/Graphics/SVG/1.1/DTD/svg11.dtd">
<!-- Generated by graphviz version 2.43.0 (0)
 -->
<!-- Title: %3 Pages: 1 -->
<svg width="1687pt" height="364pt"
 viewBox="0.00 0.00 1687.48 364.00" xmlns="http://www.w3.org/2000/svg" xmlns:xlink="http://www.w3.org/1999/xlink">
<g id="graph0" class="graph" transform="scale(1 1) rotate(0) translate(4 360)">
<title>%3</title>
<polygon fill="white" stroke="transparent" points="-4,4 -4,-360 1683.48,-360 1683.48,4 -4,4"/>
<g id="clust1" class="cluster">
<title>cluster_../Emmoria/inc/component</title>
<polygon fill="none" stroke="black" points="306,-80 306,-132 1002,-132 1002,-80 306,-80"/>
</g>
<g id="clust2" class="cluster">
<title>cluster_../Emmoria/inc/core</title>
<polygon fill="none" stroke="black" points="717,-224 717,-276 837,-276 837,-224 717,-224"/>
</g>
<g id="clust3" class="cluster">
<title>cluster_../Emmoria/inc/loader</title>
<polygon fill="none" stroke="black" points="8,-8 8,-132 192,-132 192,-8 8,-8"/>
</g>
<g id="clust4" class="cluster">
<title>cluster_../Emmoria/inc/system</title>
<polygon fill="none" stroke="black" points="1010,-80 1010,-204 1647,-204 1647,-80 1010,-80"/>
</g>
<g id="clust5" class="cluster">
<title>cluster_../Emmoria/inc/util</title>
<polygon fill="none" stroke="black" points="200,-8 200,-60 799,-60 799,-8 200,-8"/>
</g>
<g id="clust6" class="cluster">
<title>cluster_../Emmoria</title>
<polygon fill="none" stroke="black" points="1228,-296 1228,-348 1302,-348 1302,-296 1228,-296"/>
</g>
<!-- PositionComp -->
<g id="node1" class="node">
<title>PositionComp</title>
<ellipse fill="none" stroke="black" cx="634" cy="-106" rx="61.99" ry="18"/>
<text text-anchor="middle" x="634" y="-102.3" font-family="Times,serif" font-size="14.00">PositionComp</text>
</g>
<!-- Position -->
<g id="node2" class="node">
<title>Position</title>
<ellipse fill="none" stroke="black" cx="563" cy="-34" rx="39.79" ry="18"/>
<text text-anchor="middle" x="563" y="-30.3" font-family="Times,serif" font-size="14.00">Position</text>
</g>
<!-- PositionComp&#45;&gt;Position -->
<g id="edge1" class="edge">
<title>PositionComp&#45;&gt;Position</title>
<path fill="none" stroke="red" d="M617.17,-88.41C608.02,-79.39 596.56,-68.09 586.54,-58.21"/>
<polygon fill="red" stroke="red" points="588.79,-55.52 579.22,-50.99 583.88,-60.5 588.79,-55.52"/>
</g>
<!-- EnemyComp -->
<g id="node3" class="node">
<title>EnemyComp</title>
<ellipse fill="none" stroke="black" cx="772" cy="-106" rx="57.69" ry="18"/>
<text text-anchor="middle" x="772" y="-102.3" font-family="Times,serif" font-size="14.00">EnemyComp</text>
</g>
<!-- MovieComp -->
<g id="node4" class="node">
<title>MovieComp</title>
<ellipse fill="none" stroke="black" cx="370" cy="-106" rx="55.79" ry="18"/>
<text text-anchor="middle" x="370" y="-102.3" font-family="Times,serif" font-size="14.00">MovieComp</text>
</g>
<!-- PlayerComp -->
<g id="node5" class="node">
<title>PlayerComp</title>
<ellipse fill="none" stroke="black" cx="499" cy="-106" rx="55.49" ry="18"/>
<text text-anchor="middle" x="499" y="-102.3" font-family="Times,serif" font-size="14.00">PlayerComp</text>
</g>
<!-- RenderableComp -->
<g id="node6" class="node">
<title>RenderableComp</title>
<ellipse fill="none" stroke="black" cx="921" cy="-106" rx="72.59" ry="18"/>
<text text-anchor="middle" x="921" y="-102.3" font-family="Times,serif" font-size="14.00">RenderableComp</text>
</g>
<!-- Application -->
<g id="node7" class="node">
<title>Application</title>
<ellipse fill="none" stroke="black" cx="777" cy="-250" rx="51.99" ry="18"/>
<text text-anchor="middle" x="777" y="-246.3" font-family="Times,serif" font-size="14.00">Application</text>
</g>
<!-- Application&#45;&gt;PositionComp -->
<g id="edge16" class="edge">
<title>Application&#45;&gt;PositionComp</title>
<path fill="none" stroke="blue" d="M760.6,-232.71C735.41,-207.7 687.08,-159.71 657.97,-130.8"/>
<polygon fill="blue" stroke="blue" points="660.22,-128.1 650.65,-123.54 655.28,-133.07 660.22,-128.1"/>
</g>
<!-- Application&#45;&gt;MovieComp -->
<g id="edge18" class="edge">
<title>Application&#45;&gt;MovieComp</title>
<path fill="none" stroke="blue" d="M733.67,-240C697.29,-231.97 644.17,-219.18 599,-204 530.6,-181.02 453.92,-146.71 408.91,-125.65"/>
<polygon fill="blue" stroke="blue" points="410.34,-122.45 399.81,-121.37 407.37,-128.79 410.34,-122.45"/>
</g>
<!-- Application&#45;&gt;PlayerComp -->
<g id="edge15" class="edge">
<title>Application&#45;&gt;PlayerComp</title>
<path fill="none" stroke="blue" d="M747.56,-235.05C729.21,-226.29 705.14,-214.65 684,-204 632.05,-177.82 572.57,-146.37 535.39,-126.52"/>
<polygon fill="blue" stroke="blue" points="536.91,-123.37 526.44,-121.74 533.61,-129.54 536.91,-123.37"/>
</g>
<!-- Application&#45;&gt;RenderableComp -->
<g id="edge17" class="edge">
<title>Application&#45;&gt;RenderableComp</title>
<path fill="none" stroke="blue" d="M793.52,-232.71C818.88,-207.7 867.55,-159.71 896.87,-130.8"/>
<polygon fill="blue" stroke="blue" points="899.57,-133.05 904.23,-123.54 894.65,-128.07 899.57,-133.05"/>
</g>
<!-- Size -->
<g id="node8" class="node">
<title>Size</title>
<ellipse fill="none" stroke="black" cx="648" cy="-34" rx="27" ry="18"/>
<text text-anchor="middle" x="648" y="-30.3" font-family="Times,serif" font-size="14.00">Size</text>
</g>
<!-- Application&#45;&gt;Size -->
<g id="edge2" class="edge">
<title>Application&#45;&gt;Size</title>
<path fill="none" stroke="red" d="M726.91,-244.83C614.89,-234.3 350.19,-202.32 302,-132 288.94,-112.94 286.19,-96.86 302,-80 325.61,-54.82 579.41,-71.37 612,-60 616.04,-58.59 620.04,-56.59 623.83,-54.33"/>
<polygon fill="red" stroke="red" points="625.82,-57.21 632.19,-48.74 621.93,-51.39 625.82,-57.21"/>
</g>
<!-- MovementSys -->
<g id="node9" class="node">
<title>MovementSys</title>
<ellipse fill="none" stroke="black" cx="1080" cy="-178" rx="62.29" ry="18"/>
<text text-anchor="middle" x="1080" y="-174.3" font-family="Times,serif" font-size="14.00">MovementSys</text>
</g>
<!-- Application&#45;&gt;MovementSys -->
<g id="edge3" class="edge">
<title>Application&#45;&gt;MovementSys</title>
<path fill="none" stroke="red" d="M819.13,-239.27C872.24,-227 963.74,-205.86 1023.05,-192.16"/>
<polygon fill="red" stroke="red" points="1024.05,-195.52 1033,-189.86 1022.47,-188.7 1024.05,-195.52"/>
</g>
<!-- PrintMovementSys -->
<g id="node10" class="node">
<title>PrintMovementSys</title>
<ellipse fill="none" stroke="black" cx="1240" cy="-178" rx="79.09" ry="18"/>
<text text-anchor="middle" x="1240" y="-174.3" font-family="Times,serif" font-size="14.00">PrintMovementSys</text>
</g>
<!-- Application&#45;&gt;PrintMovementSys -->
<g id="edge4" class="edge">
<title>Application&#45;&gt;PrintMovementSys</title>
<path fill="none" stroke="red" d="M827.3,-245.42C899.47,-239.73 1036.36,-226.86 1151,-204 1162.32,-201.74 1174.31,-198.78 1185.69,-195.69"/>
<polygon fill="red" stroke="red" points="1186.81,-199.01 1195.51,-192.95 1184.93,-192.26 1186.81,-199.01"/>
</g>
<!-- MovieRenderSys -->
<g id="node11" class="node">
<title>MovieRenderSys</title>
<ellipse fill="none" stroke="black" cx="1409" cy="-178" rx="72.29" ry="18"/>
<text text-anchor="middle" x="1409" y="-174.3" font-family="Times,serif" font-size="14.00">MovieRenderSys</text>
</g>
<!-- Application&#45;&gt;MovieRenderSys -->
<g id="edge5" class="edge">
<title>Application&#45;&gt;MovieRenderSys</title>
<path fill="none" stroke="red" d="M829.17,-248.51C927.59,-246.75 1147.05,-238.88 1328,-204 1338.4,-201.99 1349.36,-199.14 1359.74,-196.07"/>
<polygon fill="red" stroke="red" points="1360.94,-199.37 1369.47,-193.09 1358.89,-192.67 1360.94,-199.37"/>
</g>
<!-- GameRenderSys -->
<g id="node12" class="node">
<title>GameRenderSys</title>
<ellipse fill="none" stroke="black" cx="1569" cy="-178" rx="70.39" ry="18"/>
<text text-anchor="middle" x="1569" y="-174.3" font-family="Times,serif" font-size="14.00">GameRenderSys</text>
</g>
<!-- Application&#45;&gt;GameRenderSys -->
<g id="edge6" class="edge">
<title>Application&#45;&gt;GameRenderSys</title>
<path fill="none" stroke="red" d="M828.66,-247.37C970.35,-242.65 1362.97,-227.74 1490,-204 1500.08,-202.12 1510.66,-199.35 1520.69,-196.33"/>
<polygon fill="red" stroke="red" points="1522.01,-199.58 1530.5,-193.25 1519.91,-192.9 1522.01,-199.58"/>
</g>
<!-- EntityLoader -->
<g id="node13" class="node">
<title>EntityLoader</title>
<ellipse fill="none" stroke="black" cx="125" cy="-106" rx="57.39" ry="18"/>
<text text-anchor="middle" x="125" y="-102.3" font-family="Times,serif" font-size="14.00">EntityLoader</text>
</g>
<!-- Application&#45;&gt;EntityLoader -->
<g id="edge22" class="edge">
<title>Application&#45;&gt;EntityLoader</title>
<path fill="none" stroke="blue" d="M725.35,-247.45C591.68,-243.11 241.63,-229.41 196,-204 167.76,-188.27 147.7,-156.07 136.27,-133.09"/>
<polygon fill="blue" stroke="blue" points="139.34,-131.41 131.89,-123.88 133.02,-134.41 139.34,-131.41"/>
</g>
<!-- Entitymap -->
<g id="node14" class="node">
<title>Entitymap</title>
<ellipse fill="none" stroke="black" cx="256" cy="-34" rx="48.19" ry="18"/>
<text text-anchor="middle" x="256" y="-30.3" font-family="Times,serif" font-size="14.00">Entitymap</text>
</g>
<!-- Application&#45;&gt;Entitymap -->
<g id="edge21" class="edge">
<title>Application&#45;&gt;Entitymap</title>
<path fill="none" stroke="blue" d="M725.37,-247.82C605.11,-244.58 314.02,-233.72 282,-204 243.19,-167.97 245.84,-100.09 251.02,-62.25"/>
<polygon fill="blue" stroke="blue" points="254.54,-62.39 252.59,-51.98 247.62,-61.33 254.54,-62.39"/>
</g>
<!-- ApplicationParameters -->
<g id="node18" class="node">
<title>ApplicationParameters</title>
<ellipse fill="none" stroke="black" cx="414" cy="-34" rx="91.78" ry="18"/>
<text text-anchor="middle" x="414" y="-30.3" font-family="Times,serif" font-size="14.00">ApplicationParameters</text>
</g>
<!-- Application&#45;&gt;ApplicationParameters -->
<g id="edge20" class="edge">
<title>Application&#45;&gt;ApplicationParameters</title>
<path fill="none" stroke="blue" d="M724.95,-249.42C621.89,-249.35 396.25,-244.42 332,-204 282.5,-172.86 254.31,-127.8 288,-80 295.66,-69.14 321.65,-58.99 348.05,-51.09"/>
<polygon fill="blue" stroke="blue" points="349.13,-54.43 357.77,-48.29 347.19,-47.7 349.13,-54.43"/>
</g>
<!-- Mediamap -->
<g id="node19" class="node">
<title>Mediamap</title>
<ellipse fill="none" stroke="black" cx="742" cy="-34" rx="49.29" ry="18"/>
<text text-anchor="middle" x="742" y="-30.3" font-family="Times,serif" font-size="14.00">Mediamap</text>
</g>
<!-- Application&#45;&gt;Mediamap -->
<g id="edge19" class="edge">
<title>Application&#45;&gt;Mediamap</title>
<path fill="none" stroke="blue" d="M829.06,-248.28C1012.96,-245.46 1622.58,-233.92 1651,-204 1688.95,-164.04 1688.99,-119.92 1651,-80 1621.69,-49.2 998.89,-38.38 801.47,-35.72"/>
<polygon fill="blue" stroke="blue" points="801.34,-32.21 791.29,-35.58 801.24,-39.21 801.34,-32.21"/>
</g>
<!-- MovementSys&#45;&gt;PositionComp -->
<g id="edge30" class="edge">
<title>MovementSys&#45;&gt;PositionComp</title>
<path fill="none" stroke="blue" d="M1019.22,-173.81C944.45,-168.95 814.04,-157.42 705,-132 696.31,-129.97 687.2,-127.25 678.52,-124.34"/>
<polygon fill="blue" stroke="blue" points="679.53,-120.99 668.94,-121.01 677.24,-127.6 679.53,-120.99"/>
</g>
<!-- MovementSys&#45;&gt;MovieComp -->
<g id="edge28" class="edge">
<title>MovementSys&#45;&gt;MovieComp</title>
<path fill="none" stroke="blue" d="M1018.21,-175.03C879.11,-170.21 545,-156.41 435,-132 426.94,-130.21 418.56,-127.6 410.6,-124.73"/>
<polygon fill="blue" stroke="blue" points="411.75,-121.42 401.15,-121.14 409.26,-127.97 411.75,-121.42"/>
</g>
<!-- MovementSys&#45;&gt;PlayerComp -->
<g id="edge29" class="edge">
<title>MovementSys&#45;&gt;PlayerComp</title>
<path fill="none" stroke="blue" d="M1017.42,-177.27C919.28,-176.42 723.77,-169.58 563,-132 555.16,-130.17 547,-127.56 539.25,-124.72"/>
<polygon fill="blue" stroke="blue" points="540.27,-121.37 529.68,-121.04 537.75,-127.9 540.27,-121.37"/>
</g>
<!-- ISystem -->
<g id="node17" class="node">
<title>ISystem</title>
<ellipse fill="none" stroke="black" cx="1130" cy="-106" rx="40.09" ry="18"/>
<text text-anchor="middle" x="1130" y="-102.3" font-family="Times,serif" font-size="14.00">ISystem</text>
</g>
<!-- MovementSys&#45;&gt;ISystem -->
<g id="edge10" class="edge">
<title>MovementSys&#45;&gt;ISystem</title>
<path fill="none" stroke="red" d="M1092.1,-160.05C1098.21,-151.5 1105.73,-140.97 1112.46,-131.56"/>
<polygon fill="red" stroke="red" points="1115.39,-133.48 1118.35,-123.31 1109.69,-129.41 1115.39,-133.48"/>
</g>
<!-- PrintMovementSys&#45;&gt;PositionComp -->
<g id="edge37" class="edge">
<title>PrintMovementSys&#45;&gt;PositionComp</title>
<path fill="none" stroke="blue" d="M1184.15,-165.22C1173.2,-163.22 1161.77,-161.36 1151,-160 953.95,-135.1 899.63,-171.58 705,-132 695.97,-130.16 686.53,-127.44 677.59,-124.46"/>
<polygon fill="blue" stroke="blue" points="678.72,-121.15 668.13,-121.16 676.42,-127.76 678.72,-121.15"/>
</g>
<!-- PrintMovementSys&#45;&gt;PlayerComp -->
<g id="edge36" class="edge">
<title>PrintMovementSys&#45;&gt;PlayerComp</title>
<path fill="none" stroke="blue" d="M1184.17,-165.09C1173.21,-163.1 1161.78,-161.28 1151,-160 891.19,-129.16 818.88,-186.54 563,-132 554.95,-130.29 546.6,-127.68 538.69,-124.79"/>
<polygon fill="blue" stroke="blue" points="539.89,-121.5 529.3,-121.16 537.37,-128.03 539.89,-121.5"/>
</g>
<!-- PrintMovementSys&#45;&gt;ISystem -->
<g id="edge12" class="edge">
<title>PrintMovementSys&#45;&gt;ISystem</title>
<path fill="none" stroke="red" d="M1214.49,-160.76C1198.49,-150.58 1177.77,-137.4 1160.85,-126.63"/>
<polygon fill="red" stroke="red" points="1162.71,-123.67 1152.39,-121.25 1158.95,-129.57 1162.71,-123.67"/>
</g>
<!-- MovieRenderSys&#45;&gt;PositionComp -->
<g id="edge32" class="edge">
<title>MovieRenderSys&#45;&gt;PositionComp</title>
<path fill="none" stroke="blue" d="M1358.23,-165.03C1348.25,-163.05 1337.84,-161.24 1328,-160 1053.03,-125.2 977.09,-184.82 705,-132 695.86,-130.23 686.31,-127.5 677.29,-124.5"/>
<polygon fill="blue" stroke="blue" points="678.34,-121.16 667.74,-121.16 676.02,-127.76 678.34,-121.16"/>
</g>
<!-- MovieRenderSys&#45;&gt;MovieComp -->
<g id="edge34" class="edge">
<title>MovieRenderSys&#45;&gt;MovieComp</title>
<path fill="none" stroke="blue" d="M1358.67,-165.01C1348.57,-163.01 1337.99,-161.2 1328,-160 1130.86,-136.41 629.61,-171.3 435,-132 426.65,-130.31 417.98,-127.66 409.79,-124.71"/>
<polygon fill="blue" stroke="blue" points="411.03,-121.44 400.44,-121.13 408.53,-127.97 411.03,-121.44"/>
</g>
<!-- MovieRenderSys&#45;&gt;PlayerComp -->
<g id="edge31" class="edge">
<title>MovieRenderSys&#45;&gt;PlayerComp</title>
<path fill="none" stroke="blue" d="M1358.67,-165.05C1348.56,-163.05 1337.98,-161.22 1328,-160 1159.14,-139.34 729.57,-166.54 563,-132 554.95,-130.33 546.59,-127.74 538.67,-124.86"/>
<polygon fill="blue" stroke="blue" points="539.88,-121.57 529.29,-121.23 537.35,-128.1 539.88,-121.57"/>
</g>
<!-- MovieRenderSys&#45;&gt;RenderableComp -->
<g id="edge33" class="edge">
<title>MovieRenderSys&#45;&gt;RenderableComp</title>
<path fill="none" stroke="blue" d="M1357.75,-165.27C1347.91,-163.3 1337.67,-161.43 1328,-160 1185.89,-138.99 1147.16,-158.62 1006,-132 994.78,-129.88 982.91,-126.89 971.73,-123.71"/>
<polygon fill="blue" stroke="blue" points="972.68,-120.34 962.1,-120.88 970.71,-127.06 972.68,-120.34"/>
</g>
<!-- IGraphicsSystem -->
<g id="node16" class="node">
<title>IGraphicsSystem</title>
<ellipse fill="none" stroke="black" cx="1340" cy="-106" rx="71.49" ry="18"/>
<text text-anchor="middle" x="1340" y="-102.3" font-family="Times,serif" font-size="14.00">IGraphicsSystem</text>
</g>
<!-- MovieRenderSys&#45;&gt;IGraphicsSystem -->
<g id="edge11" class="edge">
<title>MovieRenderSys&#45;&gt;IGraphicsSystem</title>
<path fill="none" stroke="red" d="M1392.65,-160.41C1384.09,-151.73 1373.46,-140.95 1363.99,-131.34"/>
<polygon fill="red" stroke="red" points="1366.23,-128.62 1356.71,-123.96 1361.24,-133.54 1366.23,-128.62"/>
</g>
<!-- MovieRenderSys&#45;&gt;Mediamap -->
<g id="edge35" class="edge">
<title>MovieRenderSys&#45;&gt;Mediamap</title>
<path fill="none" stroke="blue" d="M1418.04,-159.77C1427.97,-138.18 1440.03,-101.41 1420,-80 1378.24,-35.37 959.78,-33.51 801.88,-34.42"/>
<polygon fill="blue" stroke="blue" points="801.39,-30.92 791.42,-34.49 801.44,-37.92 801.39,-30.92"/>
</g>
<!-- GameRenderSys&#45;&gt;PositionComp -->
<g id="edge25" class="edge">
<title>GameRenderSys&#45;&gt;PositionComp</title>
<path fill="none" stroke="blue" d="M1519.92,-165.04C1510.07,-163.03 1499.75,-161.21 1490,-160 1143.56,-116.89 1048.02,-196.94 705,-132 695.85,-130.27 686.3,-127.56 677.27,-124.56"/>
<polygon fill="blue" stroke="blue" points="678.33,-121.22 667.73,-121.22 676.01,-127.83 678.33,-121.22"/>
</g>
<!-- GameRenderSys&#45;&gt;PlayerComp -->
<g id="edge24" class="edge">
<title>GameRenderSys&#45;&gt;PlayerComp</title>
<path fill="none" stroke="blue" d="M1519.93,-165C1510.07,-162.99 1499.75,-161.19 1490,-160 1285.41,-135.11 764.93,-173.21 563,-132 554.86,-130.34 546.41,-127.73 538.42,-124.81"/>
<polygon fill="blue" stroke="blue" points="539.54,-121.49 528.95,-121.14 537.01,-128.02 539.54,-121.49"/>
</g>
<!-- GameRenderSys&#45;&gt;RenderableComp -->
<g id="edge26" class="edge">
<title>GameRenderSys&#45;&gt;RenderableComp</title>
<path fill="none" stroke="blue" d="M1519.48,-165.12C1509.75,-163.14 1499.59,-161.3 1490,-160 1276.49,-131.03 1218.29,-168.86 1006,-132 994.63,-130.03 982.62,-127.06 971.33,-123.86"/>
<polygon fill="blue" stroke="blue" points="972.21,-120.47 961.63,-121 970.23,-127.18 972.21,-120.47"/>
</g>
<!-- GameRenderSys&#45;&gt;IGraphicsSystem -->
<g id="edge9" class="edge">
<title>GameRenderSys&#45;&gt;IGraphicsSystem</title>
<path fill="none" stroke="red" d="M1525.66,-163.75C1488.04,-152.25 1433.46,-135.57 1393.2,-123.26"/>
<polygon fill="red" stroke="red" points="1394.14,-119.89 1383.55,-120.31 1392.09,-126.58 1394.14,-119.89"/>
</g>
<!-- GameRenderSys&#45;&gt;Mediamap -->
<g id="edge27" class="edge">
<title>GameRenderSys&#45;&gt;Mediamap</title>
<path fill="none" stroke="blue" d="M1553.25,-160.3C1530.51,-137.45 1486.04,-97.32 1439,-80 1322.87,-37.25 948.87,-34.06 802,-34.53"/>
<polygon fill="blue" stroke="blue" points="801.82,-31.03 791.83,-34.57 801.84,-38.03 801.82,-31.03"/>
</g>
<!-- EntityLoader&#45;&gt;Entitymap -->
<g id="edge7" class="edge">
<title>EntityLoader&#45;&gt;Entitymap</title>
<path fill="none" stroke="red" d="M152.78,-90.15C172.54,-79.6 199.24,-65.33 220.54,-53.95"/>
<polygon fill="red" stroke="red" points="222.43,-56.91 229.6,-49.11 219.13,-50.73 222.43,-56.91"/>
</g>
<!-- EntityLoaderFactory -->
<g id="node15" class="node">
<title>EntityLoaderFactory</title>
<ellipse fill="none" stroke="black" cx="100" cy="-34" rx="83.69" ry="18"/>
<text text-anchor="middle" x="100" y="-30.3" font-family="Times,serif" font-size="14.00">EntityLoaderFactory</text>
</g>
<!-- EntityLoader&#45;&gt;EntityLoaderFactory -->
<g id="edge8" class="edge">
<title>EntityLoader&#45;&gt;EntityLoaderFactory</title>
<path fill="none" stroke="red" d="M118.95,-88.05C116.13,-80.18 112.72,-70.62 109.57,-61.79"/>
<polygon fill="red" stroke="red" points="112.83,-60.52 106.17,-52.28 106.24,-62.87 112.83,-60.52"/>
</g>
<!-- EntityLoader&#45;&gt;ApplicationParameters -->
<g id="edge23" class="edge">
<title>EntityLoader&#45;&gt;ApplicationParameters</title>
<path fill="none" stroke="blue" d="M169.47,-94.46C207.58,-85.4 263.92,-71.95 313,-60 324.79,-57.13 337.35,-54.04 349.46,-51.05"/>
<polygon fill="blue" stroke="blue" points="350.64,-54.37 359.51,-48.57 348.96,-47.57 350.64,-54.37"/>
</g>
<!-- Entitymap&#45;&gt;EntityLoaderFactory -->
<g id="edge38" class="edge">
<title>Entitymap&#45;&gt;EntityLoaderFactory</title>
<path fill="none" stroke="blue" d="M207.69,-34C203.26,-34 198.84,-34 194.42,-34"/>
<polygon fill="blue" stroke="blue" points="194.09,-30.5 184.09,-34 194.09,-37.5 194.09,-30.5"/>
</g>
<!-- main -->
<g id="node20" class="node">
<title>main</title>
<ellipse fill="none" stroke="black" cx="1265" cy="-322" rx="28.7" ry="18"/>
<text text-anchor="middle" x="1265" y="-318.3" font-family="Times,serif" font-size="14.00">main</text>
</g>
<!-- main&#45;&gt;Application -->
<g id="edge14" class="edge">
<title>main&#45;&gt;Application</title>
<path fill="none" stroke="blue" d="M1237.36,-317.04C1159.9,-305.92 939.46,-274.3 834.25,-259.21"/>
<polygon fill="blue" stroke="blue" points="834.52,-255.72 824.13,-257.76 833.53,-262.64 834.52,-255.72"/>
</g>
<!-- main&#45;&gt;Size -->
<g id="edge13" class="edge">
<title>main&#45;&gt;Size</title>
<path fill="none" stroke="blue" d="M1292.51,-316.93C1373.3,-304.34 1606.99,-263.33 1651,-204 1683.83,-159.74 1689.56,-119.37 1651,-80 1613.4,-41.61 735.11,-76.59 684,-60 679.93,-58.68 675.91,-56.73 672.11,-54.5"/>
<polygon fill="blue" stroke="blue" points="674.01,-51.55 663.75,-48.92 670.13,-57.38 674.01,-51.55"/>
</g>
</g>
</svg>
