<?xml version="1.0" encoding="UTF-8" standalone="no"?>
<!DOCTYPE svg PUBLIC "-//W3C//DTD SVG 1.1//EN"
 "http://www.w3.org/Graphics/SVG/1.1/DTD/svg11.dtd">
<!-- Generated by graphviz version 2.43.0 (0)
 -->
<!-- Title: %3 Pages: 1 -->
<svg width="4362pt" height="292pt"
 viewBox="0.00 0.00 4362.08 292.00" xmlns="http://www.w3.org/2000/svg" xmlns:xlink="http://www.w3.org/1999/xlink">
<g id="graph0" class="graph" transform="scale(1 1) rotate(0) translate(4 288)">
<title>%3</title>
<polygon fill="white" stroke="transparent" points="-4,4 -4,-288 4358.08,-288 4358.08,4 -4,4"/>
<g id="clust1" class="cluster">
<title>cluster_../Emmoria/inc/component/functional</title>
<polygon fill="none" stroke="black" points="1148,-8 1148,-60 2208,-60 2208,-8 1148,-8"/>
</g>
<g id="clust2" class="cluster">
<title>cluster_../Emmoria/inc/component/tag</title>
<polygon fill="none" stroke="black" points="301,-8 301,-60 1140,-60 1140,-8 301,-8"/>
</g>
<g id="clust3" class="cluster">
<title>cluster_../Emmoria/inc/core</title>
<polygon fill="none" stroke="black" points="3648,-152 3648,-204 3768,-204 3768,-152 3648,-152"/>
</g>
<g id="clust4" class="cluster">
<title>cluster_../Emmoria/inc/entity</title>
<polygon fill="none" stroke="black" points="8,-8 8,-132 293,-132 293,-8 8,-8"/>
</g>
<g id="clust5" class="cluster">
<title>cluster_../Emmoria/inc/system</title>
<polygon fill="none" stroke="black" points="2216,-8 2216,-132 3469,-132 3469,-8 2216,-8"/>
</g>
<g id="clust6" class="cluster">
<title>cluster_../Emmoria/inc/util</title>
<polygon fill="none" stroke="black" points="3509,-8 3509,-132 4343,-132 4343,-8 3509,-8"/>
</g>
<g id="clust7" class="cluster">
<title>cluster_../Emmoria</title>
<polygon fill="none" stroke="black" points="3603,-224 3603,-276 3677,-276 3677,-224 3603,-224"/>
</g>
<!-- MovieComp -->
<g id="node1" class="node">
<title>MovieComp</title>
<ellipse fill="none" stroke="black" cx="2024" cy="-34" rx="55.79" ry="18"/>
<text text-anchor="middle" x="2024" y="-30.3" font-family="Times,serif" font-size="14.00">MovieComp</text>
</g>
<!-- Mediamap -->
<g id="node2" class="node">
<title>Mediamap</title>
<ellipse fill="none" stroke="black" cx="3768" cy="-34" rx="49.29" ry="18"/>
<text text-anchor="middle" x="3768" y="-30.3" font-family="Times,serif" font-size="14.00">Mediamap</text>
</g>
<!-- MovieComp&#45;&gt;Mediamap -->
<g id="edge1" class="edge">
<title>MovieComp&#45;&gt;Mediamap</title>
<path fill="none" stroke="red" d="M2047.41,-50.56C2061.38,-59.42 2079.88,-69.42 2098,-74 2141.17,-84.92 3658.07,-85.84 3701,-74 3714.19,-70.36 3727.4,-63.37 3738.56,-56.23"/>
<polygon fill="red" stroke="red" points="3740.69,-59.02 3747.04,-50.54 3736.78,-53.21 3740.69,-59.02"/>
</g>
<!-- PositionComp -->
<g id="node3" class="node">
<title>PositionComp</title>
<ellipse fill="none" stroke="black" cx="1888" cy="-34" rx="61.99" ry="18"/>
<text text-anchor="middle" x="1888" y="-30.3" font-family="Times,serif" font-size="14.00">PositionComp</text>
</g>
<!-- Position -->
<g id="node4" class="node">
<title>Position</title>
<ellipse fill="none" stroke="black" cx="3629" cy="-106" rx="39.79" ry="18"/>
<text text-anchor="middle" x="3629" y="-102.3" font-family="Times,serif" font-size="14.00">Position</text>
</g>
<!-- PositionComp&#45;&gt;Position -->
<g id="edge2" class="edge">
<title>PositionComp&#45;&gt;Position</title>
<path fill="none" stroke="red" d="M1921.35,-49.22C1933.04,-53.54 1946.4,-57.73 1959,-60 2313.59,-123.76 3225.26,-25.06 3580,-88 3583.47,-88.62 3587.03,-89.44 3590.57,-90.4"/>
<polygon fill="red" stroke="red" points="3589.8,-93.82 3600.39,-93.38 3591.83,-87.13 3589.8,-93.82"/>
</g>
<!-- SizeComp -->
<g id="node5" class="node">
<title>SizeComp</title>
<ellipse fill="none" stroke="black" cx="1760" cy="-34" rx="48.19" ry="18"/>
<text text-anchor="middle" x="1760" y="-30.3" font-family="Times,serif" font-size="14.00">SizeComp</text>
</g>
<!-- Size -->
<g id="node6" class="node">
<title>Size</title>
<ellipse fill="none" stroke="black" cx="3544" cy="-106" rx="27" ry="18"/>
<text text-anchor="middle" x="3544" y="-102.3" font-family="Times,serif" font-size="14.00">Size</text>
</g>
<!-- SizeComp&#45;&gt;Size -->
<g id="edge3" class="edge">
<title>SizeComp&#45;&gt;Size</title>
<path fill="none" stroke="red" d="M1786.23,-49.1C1795.66,-53.46 1806.55,-57.72 1817,-60 1996.78,-99.28 3290.43,-64.88 3473,-88 3485.16,-89.54 3498.26,-92.34 3509.86,-95.23"/>
<polygon fill="red" stroke="red" points="3509.04,-98.64 3519.6,-97.76 3510.8,-91.86 3509.04,-98.64"/>
</g>
<!-- ClickableComp -->
<g id="node7" class="node">
<title>ClickableComp</title>
<ellipse fill="none" stroke="black" cx="1386" cy="-34" rx="66.09" ry="18"/>
<text text-anchor="middle" x="1386" y="-30.3" font-family="Times,serif" font-size="14.00">ClickableComp</text>
</g>
<!-- LoadComp -->
<g id="node8" class="node">
<title>LoadComp</title>
<ellipse fill="none" stroke="black" cx="2149" cy="-34" rx="50.89" ry="18"/>
<text text-anchor="middle" x="2149" y="-30.3" font-family="Times,serif" font-size="14.00">LoadComp</text>
</g>
<!-- RenderableComp -->
<g id="node9" class="node">
<title>RenderableComp</title>
<ellipse fill="none" stroke="black" cx="1229" cy="-34" rx="72.59" ry="18"/>
<text text-anchor="middle" x="1229" y="-30.3" font-family="Times,serif" font-size="14.00">RenderableComp</text>
</g>
<!-- SpriteComp -->
<g id="node10" class="node">
<title>SpriteComp</title>
<ellipse fill="none" stroke="black" cx="1640" cy="-34" rx="53.89" ry="18"/>
<text text-anchor="middle" x="1640" y="-30.3" font-family="Times,serif" font-size="14.00">SpriteComp</text>
</g>
<!-- TextComp -->
<g id="node11" class="node">
<title>TextComp</title>
<ellipse fill="none" stroke="black" cx="1519" cy="-34" rx="48.99" ry="18"/>
<text text-anchor="middle" x="1519" y="-30.3" font-family="Times,serif" font-size="14.00">TextComp</text>
</g>
<!-- ButtonComp -->
<g id="node12" class="node">
<title>ButtonComp</title>
<ellipse fill="none" stroke="black" cx="682" cy="-34" rx="56.59" ry="18"/>
<text text-anchor="middle" x="682" y="-30.3" font-family="Times,serif" font-size="14.00">ButtonComp</text>
</g>
<!-- DialogChainComp -->
<g id="node13" class="node">
<title>DialogChainComp</title>
<ellipse fill="none" stroke="black" cx="386" cy="-34" rx="77.19" ry="18"/>
<text text-anchor="middle" x="386" y="-30.3" font-family="Times,serif" font-size="14.00">DialogChainComp</text>
</g>
<!-- DialogChainFragmentComp -->
<g id="node14" class="node">
<title>DialogChainFragmentComp</title>
<ellipse fill="none" stroke="black" cx="868" cy="-34" rx="111.58" ry="18"/>
<text text-anchor="middle" x="868" y="-30.3" font-family="Times,serif" font-size="14.00">DialogChainFragmentComp</text>
</g>
<!-- PersistentComp -->
<g id="node15" class="node">
<title>PersistentComp</title>
<ellipse fill="none" stroke="black" cx="1065" cy="-34" rx="66.89" ry="18"/>
<text text-anchor="middle" x="1065" y="-30.3" font-family="Times,serif" font-size="14.00">PersistentComp</text>
</g>
<!-- RandomComp -->
<g id="node16" class="node">
<title>RandomComp</title>
<ellipse fill="none" stroke="black" cx="544" cy="-34" rx="63.09" ry="18"/>
<text text-anchor="middle" x="544" y="-30.3" font-family="Times,serif" font-size="14.00">RandomComp</text>
</g>
<!-- Application -->
<g id="node17" class="node">
<title>Application</title>
<ellipse fill="none" stroke="black" cx="3708" cy="-178" rx="51.99" ry="18"/>
<text text-anchor="middle" x="3708" y="-174.3" font-family="Times,serif" font-size="14.00">Application</text>
</g>
<!-- ISystem -->
<g id="node22" class="node">
<title>ISystem</title>
<ellipse fill="none" stroke="black" cx="2952" cy="-34" rx="40.09" ry="18"/>
<text text-anchor="middle" x="2952" y="-30.3" font-family="Times,serif" font-size="14.00">ISystem</text>
</g>
<!-- Application&#45;&gt;ISystem -->
<g id="edge27" class="edge">
<title>Application&#45;&gt;ISystem</title>
<path fill="none" stroke="blue" d="M3656.46,-175.04C3613.13,-171.28 3551.07,-160.79 3505,-132 3483.81,-118.76 3491.92,-99.99 3470,-88 3390.3,-44.42 3116.48,-36.6 3002.46,-35.25"/>
<polygon fill="blue" stroke="blue" points="3002.29,-31.75 2992.26,-35.14 3002.22,-38.75 3002.29,-31.75"/>
</g>
<!-- SystemList -->
<g id="node36" class="node">
<title>SystemList</title>
<ellipse fill="none" stroke="black" cx="3737" cy="-106" rx="50.89" ry="18"/>
<text text-anchor="middle" x="3737" y="-102.3" font-family="Times,serif" font-size="14.00">SystemList</text>
</g>
<!-- Application&#45;&gt;SystemList -->
<g id="edge29" class="edge">
<title>Application&#45;&gt;SystemList</title>
<path fill="none" stroke="blue" d="M3715.02,-160.05C3718.28,-152.18 3722.24,-142.62 3725.9,-133.79"/>
<polygon fill="blue" stroke="blue" points="3729.25,-134.85 3729.84,-124.28 3722.78,-132.17 3729.25,-134.85"/>
</g>
<!-- ApplicationParameters -->
<g id="node37" class="node">
<title>ApplicationParameters</title>
<ellipse fill="none" stroke="black" cx="3609" cy="-34" rx="91.78" ry="18"/>
<text text-anchor="middle" x="3609" y="-30.3" font-family="Times,serif" font-size="14.00">ApplicationParameters</text>
</g>
<!-- Application&#45;&gt;ApplicationParameters -->
<g id="edge28" class="edge">
<title>Application&#45;&gt;ApplicationParameters</title>
<path fill="none" stroke="blue" d="M3760.19,-177.29C3905.14,-177.53 4304.55,-174.34 4344,-132 4357.33,-117.69 4357.52,-102.13 4344,-88 4319.63,-62.53 3744.89,-65.04 3710,-60 3696.26,-58.02 3681.67,-54.97 3667.97,-51.68"/>
<polygon fill="blue" stroke="blue" points="3668.73,-48.26 3658.19,-49.25 3667.05,-55.06 3668.73,-48.26"/>
</g>
<!-- EntityLoaderFactory -->
<g id="node18" class="node">
<title>EntityLoaderFactory</title>
<ellipse fill="none" stroke="black" cx="201" cy="-106" rx="83.69" ry="18"/>
<text text-anchor="middle" x="201" y="-102.3" font-family="Times,serif" font-size="14.00">EntityLoaderFactory</text>
</g>
<!-- EntityLoaderFactory&#45;&gt;PositionComp -->
<g id="edge34" class="edge">
<title>EntityLoaderFactory&#45;&gt;PositionComp</title>
<path fill="none" stroke="blue" d="M284.63,-104.19C594.37,-100.98 1666.17,-87.95 1817,-60 1826.25,-58.29 1835.91,-55.56 1845.02,-52.53"/>
<polygon fill="blue" stroke="blue" points="1846.36,-55.76 1854.64,-49.15 1844.04,-49.16 1846.36,-55.76"/>
</g>
<!-- EntityLoaderFactory&#45;&gt;SizeComp -->
<g id="edge35" class="edge">
<title>EntityLoaderFactory&#45;&gt;SizeComp</title>
<path fill="none" stroke="blue" d="M284.58,-104.36C580.01,-101.83 1564.81,-91.14 1703,-60 1709.94,-58.44 1717.08,-56.02 1723.86,-53.3"/>
<polygon fill="blue" stroke="blue" points="1725.67,-56.33 1733.47,-49.15 1722.9,-49.9 1725.67,-56.33"/>
</g>
<!-- EntityLoaderFactory&#45;&gt;ClickableComp -->
<g id="edge37" class="edge">
<title>EntityLoaderFactory&#45;&gt;ClickableComp</title>
<path fill="none" stroke="blue" d="M284.64,-104.65C507.9,-103.21 1114.29,-96.03 1311,-60 1320.72,-58.22 1330.9,-55.46 1340.52,-52.42"/>
<polygon fill="blue" stroke="blue" points="1341.91,-55.65 1350.3,-49.18 1339.71,-49.01 1341.91,-55.65"/>
</g>
<!-- EntityLoaderFactory&#45;&gt;RenderableComp -->
<g id="edge33" class="edge">
<title>EntityLoaderFactory&#45;&gt;RenderableComp</title>
<path fill="none" stroke="blue" d="M284.43,-103.57C483.12,-99.74 979.95,-87.63 1144,-60 1155.38,-58.08 1167.39,-55.14 1178.68,-51.94"/>
<polygon fill="blue" stroke="blue" points="1179.79,-55.27 1188.39,-49.08 1177.81,-48.55 1179.79,-55.27"/>
</g>
<!-- EntityLoaderFactory&#45;&gt;SpriteComp -->
<g id="edge38" class="edge">
<title>EntityLoaderFactory&#45;&gt;SpriteComp</title>
<path fill="none" stroke="blue" d="M284.44,-103.94C563.08,-100.18 1451.01,-86.23 1577,-60 1585.03,-58.33 1593.35,-55.72 1601.22,-52.8"/>
<polygon fill="blue" stroke="blue" points="1602.51,-56.05 1610.53,-49.13 1599.94,-49.54 1602.51,-56.05"/>
</g>
<!-- EntityLoaderFactory&#45;&gt;TextComp -->
<g id="edge36" class="edge">
<title>EntityLoaderFactory&#45;&gt;TextComp</title>
<path fill="none" stroke="blue" d="M284.23,-103.81C546.79,-99.81 1347.02,-85.65 1461,-60 1468.21,-58.38 1475.64,-55.88 1482.68,-53.08"/>
<polygon fill="blue" stroke="blue" points="1484.14,-56.26 1491.97,-49.12 1481.4,-49.81 1484.14,-56.26"/>
</g>
<!-- EntityLoaderFactory&#45;&gt;ButtonComp -->
<g id="edge30" class="edge">
<title>EntityLoaderFactory&#45;&gt;ButtonComp</title>
<path fill="none" stroke="blue" d="M283.16,-102.23C367.64,-97.97 502.53,-87.17 616,-60 624.05,-58.07 632.44,-55.42 640.44,-52.56"/>
<polygon fill="blue" stroke="blue" points="641.81,-55.79 649.95,-49.01 639.36,-49.23 641.81,-55.79"/>
</g>
<!-- EntityLoaderFactory&#45;&gt;DialogChainComp -->
<g id="edge31" class="edge">
<title>EntityLoaderFactory&#45;&gt;DialogChainComp</title>
<path fill="none" stroke="blue" d="M240.69,-89.98C269.14,-79.22 307.62,-64.66 337.83,-53.23"/>
<polygon fill="blue" stroke="blue" points="339.22,-56.44 347.33,-49.63 336.74,-49.9 339.22,-56.44"/>
</g>
<!-- EntityLoaderFactory&#45;&gt;RandomComp -->
<g id="edge32" class="edge">
<title>EntityLoaderFactory&#45;&gt;RandomComp</title>
<path fill="none" stroke="blue" d="M272.44,-96.51C327.48,-89.15 405.22,-77.01 472,-60 480.66,-57.79 489.77,-55.01 498.48,-52.11"/>
<polygon fill="blue" stroke="blue" points="499.78,-55.36 508.11,-48.81 497.51,-48.74 499.78,-55.36"/>
</g>
<!-- EntityMacro -->
<g id="node19" class="node">
<title>EntityMacro</title>
<ellipse fill="none" stroke="black" cx="229" cy="-34" rx="55.79" ry="18"/>
<text text-anchor="middle" x="229" y="-30.3" font-family="Times,serif" font-size="14.00">EntityMacro</text>
</g>
<!-- EntityLoaderFactory&#45;&gt;EntityMacro -->
<g id="edge4" class="edge">
<title>EntityLoaderFactory&#45;&gt;EntityMacro</title>
<path fill="none" stroke="red" d="M207.78,-88.05C210.93,-80.18 214.75,-70.62 218.28,-61.79"/>
<polygon fill="red" stroke="red" points="221.63,-62.86 222.09,-52.28 215.13,-60.26 221.63,-62.86"/>
</g>
<!-- EntityMacroEnd -->
<g id="node20" class="node">
<title>EntityMacroEnd</title>
<ellipse fill="none" stroke="black" cx="86" cy="-34" rx="69.59" ry="18"/>
<text text-anchor="middle" x="86" y="-30.3" font-family="Times,serif" font-size="14.00">EntityMacroEnd</text>
</g>
<!-- EntityLoaderFactory&#45;&gt;EntityMacroEnd -->
<g id="edge5" class="edge">
<title>EntityLoaderFactory&#45;&gt;EntityMacroEnd</title>
<path fill="none" stroke="red" d="M174.33,-88.76C158.39,-79.07 137.98,-66.64 120.79,-56.17"/>
<polygon fill="red" stroke="red" points="122.49,-53.12 112.13,-50.91 118.85,-59.1 122.49,-53.12"/>
</g>
<!-- EntityLoaderUtils -->
<g id="node31" class="node">
<title>EntityLoaderUtils</title>
<ellipse fill="none" stroke="black" cx="3880" cy="-106" rx="74.19" ry="18"/>
<text text-anchor="middle" x="3880" y="-102.3" font-family="Times,serif" font-size="14.00">EntityLoaderUtils</text>
</g>
<!-- EntityLoaderFactory&#45;&gt;EntityLoaderUtils -->
<g id="edge40" class="edge">
<title>EntityLoaderFactory&#45;&gt;EntityLoaderUtils</title>
<path fill="none" stroke="blue" d="M284.69,-108.03C561.04,-114.6 1469.55,-135.3 2221,-142 2308.05,-142.78 3702.45,-158.14 3788,-142 3804.89,-138.81 3822.65,-132.61 3838.02,-126.23"/>
<polygon fill="blue" stroke="blue" points="3839.44,-129.43 3847.24,-122.26 3836.67,-123 3839.44,-129.43"/>
</g>
<!-- EntityLoaderFactory&#45;&gt;ApplicationParameters -->
<g id="edge39" class="edge">
<title>EntityLoaderFactory&#45;&gt;ApplicationParameters</title>
<path fill="none" stroke="blue" d="M284.65,-104.25C779.71,-99.74 3309.83,-76 3473,-60 3495.17,-57.83 3519.14,-53.94 3540.69,-49.87"/>
<polygon fill="blue" stroke="blue" points="3541.58,-53.27 3550.73,-47.93 3540.25,-46.4 3541.58,-53.27"/>
</g>
<!-- ButtonSys -->
<g id="node21" class="node">
<title>ButtonSys</title>
<ellipse fill="none" stroke="black" cx="2384" cy="-106" rx="47.39" ry="18"/>
<text text-anchor="middle" x="2384" y="-102.3" font-family="Times,serif" font-size="14.00">ButtonSys</text>
</g>
<!-- ButtonSys&#45;&gt;MovieComp -->
<g id="edge45" class="edge">
<title>ButtonSys&#45;&gt;MovieComp</title>
<path fill="none" stroke="blue" d="M2349.28,-93.61C2341.98,-91.5 2334.28,-89.5 2327,-88 2222.69,-66.48 2192.4,-85.54 2089,-60 2081.07,-58.04 2072.8,-55.38 2064.93,-52.51"/>
<polygon fill="blue" stroke="blue" points="2066.15,-49.24 2055.56,-48.96 2063.67,-55.78 2066.15,-49.24"/>
</g>
<!-- ButtonSys&#45;&gt;Mediamap -->
<g id="edge46" class="edge">
<title>ButtonSys&#45;&gt;Mediamap</title>
<path fill="none" stroke="blue" d="M2417.71,-93.15C2424.98,-91.05 2432.68,-89.17 2440,-88 2718.76,-43.48 3434.18,-120.09 3710,-60 3717.22,-58.43 3724.65,-55.95 3731.69,-53.16"/>
<polygon fill="blue" stroke="blue" points="3733.16,-56.34 3740.99,-49.2 3730.42,-49.89 3733.16,-56.34"/>
</g>
<!-- ButtonSys&#45;&gt;ClickableComp -->
<g id="edge43" class="edge">
<title>ButtonSys&#45;&gt;ClickableComp</title>
<path fill="none" stroke="blue" d="M2349.97,-93.3C2342.49,-91.16 2334.54,-89.23 2327,-88 1946.9,-26.24 1840.07,-127.82 1461,-60 1451.27,-58.26 1441.09,-55.52 1431.47,-52.48"/>
<polygon fill="blue" stroke="blue" points="1432.28,-49.07 1421.69,-49.24 1430.08,-55.71 1432.28,-49.07"/>
</g>
<!-- ButtonSys&#45;&gt;TextComp -->
<g id="edge44" class="edge">
<title>ButtonSys&#45;&gt;TextComp</title>
<path fill="none" stroke="blue" d="M2349.97,-93.33C2342.48,-91.19 2334.54,-89.24 2327,-88 2162.44,-60.84 1739.68,-96.75 1577,-60 1569.79,-58.37 1562.36,-55.87 1555.33,-53.07"/>
<polygon fill="blue" stroke="blue" points="1556.6,-49.81 1546.03,-49.11 1553.86,-56.25 1556.6,-49.81"/>
</g>
<!-- ButtonSys&#45;&gt;ButtonComp -->
<g id="edge41" class="edge">
<title>ButtonSys&#45;&gt;ButtonComp</title>
<path fill="none" stroke="blue" d="M2350.29,-93.3C2342.71,-91.14 2334.65,-89.19 2327,-88 1979.98,-34.21 1091.68,-127.16 747,-60 738.64,-58.37 729.96,-55.75 721.77,-52.8"/>
<polygon fill="blue" stroke="blue" points="723.02,-49.53 712.43,-49.22 720.52,-56.06 723.02,-49.53"/>
</g>
<!-- ButtonSys&#45;&gt;PersistentComp -->
<g id="edge42" class="edge">
<title>ButtonSys&#45;&gt;PersistentComp</title>
<path fill="none" stroke="blue" d="M2350.28,-93.34C2342.71,-91.17 2334.65,-89.21 2327,-88 2067.26,-46.95 1403.39,-103.21 1144,-60 1133.35,-58.23 1122.16,-55.35 1111.66,-52.16"/>
<polygon fill="blue" stroke="blue" points="1112.43,-48.73 1101.84,-49.03 1110.31,-55.4 1112.43,-48.73"/>
</g>
<!-- ButtonSys&#45;&gt;ISystem -->
<g id="edge6" class="edge">
<title>ButtonSys&#45;&gt;ISystem</title>
<path fill="none" stroke="red" d="M2418.39,-93.43C2425.47,-91.37 2432.93,-89.43 2440,-88 2607.01,-54.33 2809.24,-41.41 2901.59,-37.02"/>
<polygon fill="red" stroke="red" points="2901.95,-40.5 2911.77,-36.54 2901.62,-33.51 2901.95,-40.5"/>
</g>
<!-- ClickableSys -->
<g id="node23" class="node">
<title>ClickableSys</title>
<ellipse fill="none" stroke="black" cx="2640" cy="-106" rx="57.39" ry="18"/>
<text text-anchor="middle" x="2640" y="-102.3" font-family="Times,serif" font-size="14.00">ClickableSys</text>
</g>
<!-- ClickableSys&#45;&gt;PositionComp -->
<g id="edge49" class="edge">
<title>ClickableSys&#45;&gt;PositionComp</title>
<path fill="none" stroke="blue" d="M2599.43,-93.15C2591.08,-91.11 2582.31,-89.25 2574,-88 2303.41,-47.44 2227.59,-112.22 1959,-60 1949.86,-58.22 1940.31,-55.5 1931.29,-52.49"/>
<polygon fill="blue" stroke="blue" points="1932.34,-49.15 1921.74,-49.15 1930.03,-55.76 1932.34,-49.15"/>
</g>
<!-- ClickableSys&#45;&gt;SizeComp -->
<g id="edge48" class="edge">
<title>ClickableSys&#45;&gt;SizeComp</title>
<path fill="none" stroke="blue" d="M2599.79,-93.18C2591.34,-91.11 2582.43,-89.23 2574,-88 2407.42,-63.75 1981.09,-97.58 1817,-60 1810.06,-58.41 1802.93,-55.99 1796.15,-53.26"/>
<polygon fill="blue" stroke="blue" points="1797.11,-49.86 1786.54,-49.11 1794.33,-56.29 1797.11,-49.86"/>
</g>
<!-- ClickableSys&#45;&gt;ClickableComp -->
<g id="edge47" class="edge">
<title>ClickableSys&#45;&gt;ClickableComp</title>
<path fill="none" stroke="blue" d="M2599.8,-93.1C2591.35,-91.04 2582.44,-89.18 2574,-88 2328.96,-53.81 1704.7,-102.7 1461,-60 1451.27,-58.29 1441.08,-55.57 1431.46,-52.54"/>
<polygon fill="blue" stroke="blue" points="1432.27,-49.12 1421.68,-49.29 1430.07,-55.76 1432.27,-49.12"/>
</g>
<!-- ClickableSys&#45;&gt;ISystem -->
<g id="edge7" class="edge">
<title>ClickableSys&#45;&gt;ISystem</title>
<path fill="none" stroke="red" d="M2682.54,-93.78C2690.33,-91.8 2698.4,-89.8 2706,-88 2775.46,-71.58 2856.46,-54.53 2905.97,-44.34"/>
<polygon fill="red" stroke="red" points="2906.96,-47.72 2916.05,-42.28 2905.55,-40.86 2906.96,-47.72"/>
</g>
<!-- MouseUtils -->
<g id="node35" class="node">
<title>MouseUtils</title>
<ellipse fill="none" stroke="black" cx="4283" cy="-106" rx="51.99" ry="18"/>
<text text-anchor="middle" x="4283" y="-102.3" font-family="Times,serif" font-size="14.00">MouseUtils</text>
</g>
<!-- ClickableSys&#45;&gt;MouseUtils -->
<g id="edge50" class="edge">
<title>ClickableSys&#45;&gt;MouseUtils</title>
<path fill="none" stroke="blue" d="M2666.01,-122.05C2679.98,-129.73 2697.82,-138.09 2715,-142 2755.57,-151.23 4172.56,-151.79 4213,-142 4225.66,-138.94 4238.6,-133.16 4249.85,-127.12"/>
<polygon fill="blue" stroke="blue" points="4251.87,-130 4258.86,-122.04 4248.43,-123.9 4251.87,-130"/>
</g>
<!-- DialogSys -->
<g id="node24" class="node">
<title>DialogSys</title>
<ellipse fill="none" stroke="black" cx="2271" cy="-106" rx="47.39" ry="18"/>
<text text-anchor="middle" x="2271" y="-102.3" font-family="Times,serif" font-size="14.00">DialogSys</text>
</g>
<!-- DialogSys&#45;&gt;PositionComp -->
<g id="edge56" class="edge">
<title>DialogSys&#45;&gt;PositionComp</title>
<path fill="none" stroke="blue" d="M2224.99,-101.2C2163.65,-95.49 2052.01,-82.85 1959,-60 1950.33,-57.87 1941.24,-55.1 1932.56,-52.18"/>
<polygon fill="blue" stroke="blue" points="1933.58,-48.83 1922.98,-48.84 1931.27,-55.44 1933.58,-48.83"/>
</g>
<!-- DialogSys&#45;&gt;SizeComp -->
<g id="edge54" class="edge">
<title>DialogSys&#45;&gt;SizeComp</title>
<path fill="none" stroke="blue" d="M2223.41,-105.15C2139.79,-104.36 1961.63,-97.86 1817,-60 1810.26,-58.23 1803.29,-55.77 1796.65,-53.08"/>
<polygon fill="blue" stroke="blue" points="1797.77,-49.75 1787.2,-49.01 1795.01,-56.18 1797.77,-49.75"/>
</g>
<!-- DialogSys&#45;&gt;ClickableComp -->
<g id="edge58" class="edge">
<title>DialogSys&#45;&gt;ClickableComp</title>
<path fill="none" stroke="blue" d="M2223.65,-104.02C2073.41,-100.66 1608.68,-88.19 1461,-60 1451.39,-58.17 1441.33,-55.42 1431.8,-52.4"/>
<polygon fill="blue" stroke="blue" points="1432.7,-49.01 1422.1,-49.19 1430.5,-55.66 1432.7,-49.01"/>
</g>
<!-- DialogSys&#45;&gt;RenderableComp -->
<g id="edge57" class="edge">
<title>DialogSys&#45;&gt;RenderableComp</title>
<path fill="none" stroke="blue" d="M2223.66,-104.34C2055.78,-101.75 1489.48,-90.89 1311,-60 1300.22,-58.13 1288.87,-55.28 1278.17,-52.16"/>
<polygon fill="blue" stroke="blue" points="1279.14,-48.79 1268.56,-49.23 1277.11,-55.49 1279.14,-48.79"/>
</g>
<!-- DialogSys&#45;&gt;TextComp -->
<g id="edge55" class="edge">
<title>DialogSys&#45;&gt;TextComp</title>
<path fill="none" stroke="blue" d="M2223.77,-104.03C2088.3,-100.93 1700.27,-89.63 1577,-60 1569.89,-58.29 1562.55,-55.78 1555.58,-52.99"/>
<polygon fill="blue" stroke="blue" points="1556.93,-49.76 1546.36,-49.08 1554.2,-56.21 1556.93,-49.76"/>
</g>
<!-- DialogSys&#45;&gt;DialogChainComp -->
<g id="edge52" class="edge">
<title>DialogSys&#45;&gt;DialogChainComp</title>
<path fill="none" stroke="blue" d="M2223.29,-104.54C1955.92,-101.87 649.23,-87.5 472,-60 460.47,-58.21 448.32,-55.32 436.89,-52.14"/>
<polygon fill="blue" stroke="blue" points="437.65,-48.71 427.07,-49.28 435.69,-55.43 437.65,-48.71"/>
</g>
<!-- DialogSys&#45;&gt;DialogChainFragmentComp -->
<g id="edge51" class="edge">
<title>DialogSys&#45;&gt;DialogChainFragmentComp</title>
<path fill="none" stroke="blue" d="M2223.52,-104.41C2021.81,-101.72 1235,-89.52 989,-60 972.24,-57.99 954.36,-54.85 937.62,-51.47"/>
<polygon fill="blue" stroke="blue" points="937.87,-47.95 927.37,-49.35 936.45,-54.81 937.87,-47.95"/>
</g>
<!-- DialogSys&#45;&gt;RandomComp -->
<g id="edge53" class="edge">
<title>DialogSys&#45;&gt;RandomComp</title>
<path fill="none" stroke="blue" d="M2223.4,-104.58C1969.23,-102.19 777.52,-89.51 616,-60 606.73,-58.31 597.04,-55.62 587.89,-52.62"/>
<polygon fill="blue" stroke="blue" points="588.81,-49.24 578.21,-49.28 586.52,-55.85 588.81,-49.24"/>
</g>
<!-- DialogSys&#45;&gt;ISystem -->
<g id="edge8" class="edge">
<title>DialogSys&#45;&gt;ISystem</title>
<path fill="none" stroke="red" d="M2305.38,-93.51C2312.78,-91.39 2320.59,-89.4 2328,-88 2538.64,-48.08 2795,-38.21 2901.68,-35.79"/>
<polygon fill="red" stroke="red" points="2901.91,-39.28 2911.83,-35.57 2901.76,-32.28 2901.91,-39.28"/>
</g>
<!-- DialogSys&#45;&gt;EntityLoaderUtils -->
<g id="edge60" class="edge">
<title>DialogSys&#45;&gt;EntityLoaderUtils</title>
<path fill="none" stroke="blue" d="M2293.64,-122.03C2305.86,-129.71 2321.57,-138.07 2337,-142 2376.06,-151.96 3748.39,-149.47 3788,-142 3804.89,-138.81 3822.65,-132.61 3838.02,-126.23"/>
<polygon fill="blue" stroke="blue" points="3839.44,-129.43 3847.24,-122.26 3836.67,-123 3839.44,-129.43"/>
</g>
<!-- Helper -->
<g id="node33" class="node">
<title>Helper</title>
<ellipse fill="none" stroke="black" cx="4179" cy="-106" rx="34.39" ry="18"/>
<text text-anchor="middle" x="4179" y="-102.3" font-family="Times,serif" font-size="14.00">Helper</text>
</g>
<!-- DialogSys&#45;&gt;Helper -->
<g id="edge61" class="edge">
<title>DialogSys&#45;&gt;Helper</title>
<path fill="none" stroke="blue" d="M2293.64,-122.03C2305.86,-129.71 2321.57,-138.07 2337,-142 2361.08,-148.14 4102.25,-149.3 4126,-142 4135.78,-138.99 4145.38,-133.49 4153.67,-127.68"/>
<polygon fill="blue" stroke="blue" points="4155.87,-130.41 4161.77,-121.61 4151.67,-124.81 4155.87,-130.41"/>
</g>
<!-- DialogSys&#45;&gt;ApplicationParameters -->
<g id="edge59" class="edge">
<title>DialogSys&#45;&gt;ApplicationParameters</title>
<path fill="none" stroke="blue" d="M2305.02,-93.25C2312.51,-91.12 2320.45,-89.2 2328,-88 2579.38,-48.17 3219.83,-86.2 3473,-60 3495.06,-57.72 3518.9,-53.83 3540.38,-49.79"/>
<polygon fill="blue" stroke="blue" points="3541.22,-53.19 3550.38,-47.86 3539.9,-46.31 3541.22,-53.19"/>
</g>
<!-- GameRenderSys -->
<g id="node25" class="node">
<title>GameRenderSys</title>
<ellipse fill="none" stroke="black" cx="2785" cy="-106" rx="70.39" ry="18"/>
<text text-anchor="middle" x="2785" y="-102.3" font-family="Times,serif" font-size="14.00">GameRenderSys</text>
</g>
<!-- GameRenderSys&#45;&gt;Mediamap -->
<g id="edge67" class="edge">
<title>GameRenderSys&#45;&gt;Mediamap</title>
<path fill="none" stroke="blue" d="M2834.07,-93.02C2843.93,-91.02 2854.25,-89.2 2864,-88 3050.69,-65.01 3526.43,-101.05 3710,-60 3717.21,-58.39 3724.64,-55.89 3731.68,-53.09"/>
<polygon fill="blue" stroke="blue" points="3733.14,-56.27 3740.98,-49.13 3730.4,-49.83 3733.14,-56.27"/>
</g>
<!-- GameRenderSys&#45;&gt;PositionComp -->
<g id="edge63" class="edge">
<title>GameRenderSys&#45;&gt;PositionComp</title>
<path fill="none" stroke="blue" d="M2735.92,-93.05C2726.07,-91.05 2715.74,-89.22 2706,-88 2376.35,-46.67 2285.38,-122.1 1959,-60 1949.85,-58.26 1940.3,-55.55 1931.28,-52.55"/>
<polygon fill="blue" stroke="blue" points="1932.33,-49.21 1921.73,-49.21 1930.01,-55.82 1932.33,-49.21"/>
</g>
<!-- GameRenderSys&#45;&gt;SizeComp -->
<g id="edge65" class="edge">
<title>GameRenderSys&#45;&gt;SizeComp</title>
<path fill="none" stroke="blue" d="M2735.93,-93.01C2726.07,-91 2715.75,-89.19 2706,-88 2509.81,-64 2009.79,-103.6 1817,-60 1810.06,-58.43 1802.92,-56.01 1796.14,-53.29"/>
<polygon fill="blue" stroke="blue" points="1797.1,-49.89 1786.53,-49.14 1794.33,-56.32 1797.1,-49.89"/>
</g>
<!-- GameRenderSys&#45;&gt;RenderableComp -->
<g id="edge62" class="edge">
<title>GameRenderSys&#45;&gt;RenderableComp</title>
<path fill="none" stroke="blue" d="M2736.36,-93C2726.38,-90.97 2715.89,-89.15 2706,-88 2398.02,-52.11 1617.2,-108.79 1311,-60 1300.08,-58.26 1288.6,-55.43 1277.8,-52.28"/>
<polygon fill="blue" stroke="blue" points="1278.69,-48.89 1268.1,-49.32 1276.65,-55.59 1278.69,-48.89"/>
</g>
<!-- GameRenderSys&#45;&gt;SpriteComp -->
<g id="edge64" class="edge">
<title>GameRenderSys&#45;&gt;SpriteComp</title>
<path fill="none" stroke="blue" d="M2735.93,-92.98C2726.07,-90.98 2715.75,-89.17 2706,-88 2484.63,-61.32 1921.4,-104.92 1703,-60 1694.97,-58.35 1686.64,-55.74 1678.78,-52.83"/>
<polygon fill="blue" stroke="blue" points="1680.05,-49.57 1669.46,-49.16 1677.49,-56.08 1680.05,-49.57"/>
</g>
<!-- GameRenderSys&#45;&gt;TextComp -->
<g id="edge66" class="edge">
<title>GameRenderSys&#45;&gt;TextComp</title>
<path fill="none" stroke="blue" d="M2735.93,-92.95C2726.08,-90.96 2715.75,-89.16 2706,-88 2456.79,-58.36 1822.14,-113.76 1577,-60 1569.78,-58.42 1562.35,-55.94 1555.31,-53.14"/>
<polygon fill="blue" stroke="blue" points="1556.59,-49.88 1546.01,-49.18 1553.84,-56.32 1556.59,-49.88"/>
</g>
<!-- GameRenderSys&#45;&gt;ISystem -->
<g id="edge9" class="edge">
<title>GameRenderSys&#45;&gt;ISystem</title>
<path fill="none" stroke="red" d="M2820.01,-90.33C2847.56,-78.78 2885.88,-62.71 2914.14,-50.87"/>
<polygon fill="red" stroke="red" points="2915.81,-53.96 2923.68,-46.87 2913.11,-47.51 2915.81,-53.96"/>
</g>
<!-- GameRenderSys&#45;&gt;ApplicationParameters -->
<g id="edge68" class="edge">
<title>GameRenderSys&#45;&gt;ApplicationParameters</title>
<path fill="none" stroke="blue" d="M2834.09,-93.12C2843.94,-91.11 2854.26,-89.26 2864,-88 3132.7,-53.16 3203.8,-90.79 3473,-60 3494.72,-57.52 3518.2,-53.63 3539.44,-49.67"/>
<polygon fill="blue" stroke="blue" points="3540.18,-53.09 3549.35,-47.78 3538.87,-46.21 3540.18,-53.09"/>
</g>
<!-- LoadingSys -->
<g id="node26" class="node">
<title>LoadingSys</title>
<ellipse fill="none" stroke="black" cx="3408" cy="-106" rx="52.79" ry="18"/>
<text text-anchor="middle" x="3408" y="-102.3" font-family="Times,serif" font-size="14.00">LoadingSys</text>
</g>
<!-- LoadingSys&#45;&gt;LoadComp -->
<g id="edge69" class="edge">
<title>LoadingSys&#45;&gt;LoadComp</title>
<path fill="none" stroke="blue" d="M3370.61,-93.18C3362.57,-91.08 3354.06,-89.19 3346,-88 3096.61,-51.29 2458.99,-110.38 2212,-60 2203.8,-58.33 2195.3,-55.66 2187.29,-52.67"/>
<polygon fill="blue" stroke="blue" points="2188.41,-49.35 2177.83,-48.92 2185.83,-55.86 2188.41,-49.35"/>
</g>
<!-- LoadingSys&#45;&gt;ISystem -->
<g id="edge10" class="edge">
<title>LoadingSys&#45;&gt;ISystem</title>
<path fill="none" stroke="red" d="M3369.5,-93.58C3361.76,-91.53 3353.66,-89.56 3346,-88 3223.11,-63 3076.18,-46.79 3001.24,-39.48"/>
<polygon fill="red" stroke="red" points="3001.45,-35.99 2991.16,-38.51 3000.77,-42.96 3001.45,-35.99"/>
</g>
<!-- Entitymap -->
<g id="node32" class="node">
<title>Entitymap</title>
<ellipse fill="none" stroke="black" cx="3883" cy="-34" rx="48.19" ry="18"/>
<text text-anchor="middle" x="3883" y="-30.3" font-family="Times,serif" font-size="14.00">Entitymap</text>
</g>
<!-- LoadingSys&#45;&gt;Entitymap -->
<g id="edge71" class="edge">
<title>LoadingSys&#45;&gt;Entitymap</title>
<path fill="none" stroke="blue" d="M3452.79,-96.32C3469.17,-93.36 3487.88,-90.24 3505,-88 3647,-69.4 3687.25,-95.45 3826,-60 3832.82,-58.26 3839.87,-55.78 3846.58,-53.06"/>
<polygon fill="blue" stroke="blue" points="3848.31,-56.12 3856.1,-48.95 3845.53,-49.7 3848.31,-56.12"/>
</g>
<!-- LoadingSys&#45;&gt;ApplicationParameters -->
<g id="edge70" class="edge">
<title>LoadingSys&#45;&gt;ApplicationParameters</title>
<path fill="none" stroke="blue" d="M3443.47,-92.65C3474.69,-81.78 3520.57,-65.8 3556.11,-53.42"/>
<polygon fill="blue" stroke="blue" points="3557.55,-56.62 3565.84,-50.03 3555.25,-50.01 3557.55,-56.62"/>
</g>
<!-- MovementSys -->
<g id="node27" class="node">
<title>MovementSys</title>
<ellipse fill="none" stroke="black" cx="3112" cy="-106" rx="62.29" ry="18"/>
<text text-anchor="middle" x="3112" y="-102.3" font-family="Times,serif" font-size="14.00">MovementSys</text>
</g>
<!-- MovementSys&#45;&gt;PositionComp -->
<g id="edge72" class="edge">
<title>MovementSys&#45;&gt;PositionComp</title>
<path fill="none" stroke="blue" d="M3068.1,-93.12C3058.88,-91.05 3049.17,-89.19 3040,-88 2801.69,-57.12 2195.32,-103.55 1959,-60 1949.75,-58.3 1940.09,-55.57 1930.98,-52.54"/>
<polygon fill="blue" stroke="blue" points="1931.95,-49.17 1921.36,-49.16 1929.63,-55.78 1931.95,-49.17"/>
</g>
<!-- MovementSys&#45;&gt;ISystem -->
<g id="edge11" class="edge">
<title>MovementSys&#45;&gt;ISystem</title>
<path fill="none" stroke="red" d="M3079.24,-90.67C3052.98,-79.18 3016.16,-63.07 2988.88,-51.13"/>
<polygon fill="red" stroke="red" points="2990.22,-47.9 2979.66,-47.1 2987.42,-54.31 2990.22,-47.9"/>
</g>
<!-- MovementSys&#45;&gt;ApplicationParameters -->
<g id="edge73" class="edge">
<title>MovementSys&#45;&gt;ApplicationParameters</title>
<path fill="none" stroke="blue" d="M3156.75,-93.45C3165.73,-91.41 3175.13,-89.47 3184,-88 3311.31,-66.9 3345.2,-77.9 3473,-60 3494.04,-57.05 3516.79,-53.15 3537.56,-49.31"/>
<polygon fill="blue" stroke="blue" points="3538.39,-52.72 3547.57,-47.44 3537.1,-45.84 3538.39,-52.72"/>
</g>
<!-- MovieRenderSys -->
<g id="node28" class="node">
<title>MovieRenderSys</title>
<ellipse fill="none" stroke="black" cx="3265" cy="-106" rx="72.29" ry="18"/>
<text text-anchor="middle" x="3265" y="-102.3" font-family="Times,serif" font-size="14.00">MovieRenderSys</text>
</g>
<!-- MovieRenderSys&#45;&gt;MovieComp -->
<g id="edge74" class="edge">
<title>MovieRenderSys&#45;&gt;MovieComp</title>
<path fill="none" stroke="blue" d="M3214.49,-93.05C3204.13,-91.02 3193.25,-89.18 3183,-88 2941.42,-60.09 2327.52,-107.45 2089,-60 2080.65,-58.34 2071.97,-55.7 2063.78,-52.74"/>
<polygon fill="blue" stroke="blue" points="2065.03,-49.47 2054.44,-49.17 2062.53,-56.01 2065.03,-49.47"/>
</g>
<!-- MovieRenderSys&#45;&gt;Mediamap -->
<g id="edge13" class="edge">
<title>MovieRenderSys&#45;&gt;Mediamap</title>
<path fill="none" stroke="red" d="M3316.24,-93.2C3326.08,-91.23 3336.33,-89.38 3346,-88 3506.63,-65.07 3552.47,-98.86 3710,-60 3717.1,-58.25 3724.44,-55.71 3731.4,-52.92"/>
<polygon fill="red" stroke="red" points="3732.79,-56.14 3740.62,-49 3730.05,-49.69 3732.79,-56.14"/>
</g>
<!-- MovieRenderSys&#45;&gt;LoadComp -->
<g id="edge75" class="edge">
<title>MovieRenderSys&#45;&gt;LoadComp</title>
<path fill="none" stroke="blue" d="M3214.49,-93.08C3204.13,-91.04 3193.25,-89.2 3183,-88 2968.6,-62.88 2423.42,-103.58 2212,-60 2203.81,-58.31 2195.31,-55.63 2187.3,-52.64"/>
<polygon fill="blue" stroke="blue" points="2188.42,-49.32 2177.83,-48.89 2185.84,-55.83 2188.42,-49.32"/>
</g>
<!-- MovieRenderSys&#45;&gt;ISystem -->
<g id="edge12" class="edge">
<title>MovieRenderSys&#45;&gt;ISystem</title>
<path fill="none" stroke="red" d="M3213.31,-93.44C3153.04,-79.96 3054.36,-57.89 2997.08,-45.08"/>
<polygon fill="red" stroke="red" points="2997.74,-41.64 2987.22,-42.88 2996.22,-48.48 2997.74,-41.64"/>
</g>
<!-- MovieRenderSys&#45;&gt;Entitymap -->
<g id="edge76" class="edge">
<title>MovieRenderSys&#45;&gt;Entitymap</title>
<path fill="none" stroke="blue" d="M3315.79,-93.14C3325.76,-91.15 3336.17,-89.31 3346,-88 3557.82,-59.75 3618.22,-109.92 3826,-60 3832.85,-58.35 3839.9,-55.93 3846.62,-53.22"/>
<polygon fill="blue" stroke="blue" points="3848.34,-56.29 3856.14,-49.12 3845.57,-49.86 3848.34,-56.29"/>
</g>
<!-- MediatoEntitymap -->
<g id="node34" class="node">
<title>MediatoEntitymap</title>
<ellipse fill="none" stroke="black" cx="4049" cy="-106" rx="77.19" ry="18"/>
<text text-anchor="middle" x="4049" y="-102.3" font-family="Times,serif" font-size="14.00">MediatoEntitymap</text>
</g>
<!-- MovieRenderSys&#45;&gt;MediatoEntitymap -->
<g id="edge77" class="edge">
<title>MovieRenderSys&#45;&gt;MediatoEntitymap</title>
<path fill="none" stroke="blue" d="M3297.01,-122.26C3313.8,-129.9 3335,-138.15 3355,-142 3420.35,-154.59 3888.53,-153.99 3954,-142 3971.38,-138.82 3989.71,-132.61 4005.59,-126.23"/>
<polygon fill="blue" stroke="blue" points="4007.23,-129.34 4015.12,-122.27 4004.54,-122.88 4007.23,-129.34"/>
</g>
<!-- PersistentSys -->
<g id="node29" class="node">
<title>PersistentSys</title>
<ellipse fill="none" stroke="black" cx="2507" cy="-106" rx="57.69" ry="18"/>
<text text-anchor="middle" x="2507" y="-102.3" font-family="Times,serif" font-size="14.00">PersistentSys</text>
</g>
<!-- PersistentSys&#45;&gt;PositionComp -->
<g id="edge79" class="edge">
<title>PersistentSys&#45;&gt;PositionComp</title>
<path fill="none" stroke="blue" d="M2465.79,-93.24C2457.32,-91.19 2448.42,-89.3 2440,-88 2228.37,-55.3 2168.94,-102.2 1959,-60 1949.97,-58.18 1940.53,-55.47 1931.58,-52.5"/>
<polygon fill="blue" stroke="blue" points="1932.72,-49.18 1922.12,-49.19 1930.41,-55.79 1932.72,-49.18"/>
</g>
<!-- PersistentSys&#45;&gt;PersistentComp -->
<g id="edge78" class="edge">
<title>PersistentSys&#45;&gt;PersistentComp</title>
<path fill="none" stroke="blue" d="M2466.19,-93.08C2457.61,-91.02 2448.56,-89.16 2440,-88 2154.56,-49.22 1428.2,-107.04 1144,-60 1133.35,-58.24 1122.16,-55.36 1111.66,-52.17"/>
<polygon fill="blue" stroke="blue" points="1112.43,-48.75 1101.84,-49.05 1110.31,-55.42 1112.43,-48.75"/>
</g>
<!-- PersistentSys&#45;&gt;ISystem -->
<g id="edge14" class="edge">
<title>PersistentSys&#45;&gt;ISystem</title>
<path fill="none" stroke="red" d="M2549.02,-93.59C2557.26,-91.57 2565.87,-89.6 2574,-88 2691.14,-65 2830.59,-48.12 2902.95,-40.14"/>
<polygon fill="red" stroke="red" points="2903.57,-43.6 2913.13,-39.03 2902.81,-36.64 2903.57,-43.6"/>
</g>
<!-- PrintMovementSys -->
<g id="node30" class="node">
<title>PrintMovementSys</title>
<ellipse fill="none" stroke="black" cx="2952" cy="-106" rx="79.09" ry="18"/>
<text text-anchor="middle" x="2952" y="-102.3" font-family="Times,serif" font-size="14.00">PrintMovementSys</text>
</g>
<!-- PrintMovementSys&#45;&gt;PositionComp -->
<g id="edge80" class="edge">
<title>PrintMovementSys&#45;&gt;PositionComp</title>
<path fill="none" stroke="blue" d="M2896.81,-92.94C2885.98,-90.97 2874.67,-89.19 2864,-88 2664.03,-65.74 2156.78,-96.96 1959,-60 1949.85,-58.29 1940.29,-55.6 1931.27,-52.6"/>
<polygon fill="blue" stroke="blue" points="1932.32,-49.26 1921.72,-49.26 1930.01,-55.86 1932.32,-49.26"/>
</g>
<!-- PrintMovementSys&#45;&gt;ISystem -->
<g id="edge15" class="edge">
<title>PrintMovementSys&#45;&gt;ISystem</title>
<path fill="none" stroke="red" d="M2952,-87.7C2952,-79.98 2952,-70.71 2952,-62.11"/>
<polygon fill="red" stroke="red" points="2955.5,-62.1 2952,-52.1 2948.5,-62.1 2955.5,-62.1"/>
</g>
<!-- EntityLoaderUtils&#45;&gt;Mediamap -->
<g id="edge16" class="edge">
<title>EntityLoaderUtils&#45;&gt;Mediamap</title>
<path fill="none" stroke="red" d="M3854.3,-88.94C3838.36,-78.97 3817.71,-66.07 3800.62,-55.39"/>
<polygon fill="red" stroke="red" points="3802.38,-52.36 3792.04,-50.03 3798.67,-58.29 3802.38,-52.36"/>
</g>
<!-- EntityLoaderUtils&#45;&gt;Entitymap -->
<g id="edge17" class="edge">
<title>EntityLoaderUtils&#45;&gt;Entitymap</title>
<path fill="none" stroke="red" d="M3880.74,-87.7C3881.07,-79.98 3881.47,-70.71 3881.84,-62.11"/>
<polygon fill="red" stroke="red" points="3885.34,-62.25 3882.27,-52.1 3878.34,-61.95 3885.34,-62.25"/>
</g>
<!-- EntityLoaderUtils&#45;&gt;ApplicationParameters -->
<g id="edge81" class="edge">
<title>EntityLoaderUtils&#45;&gt;ApplicationParameters</title>
<path fill="none" stroke="blue" d="M3831.24,-92.4C3786.61,-80.88 3720.34,-63.76 3671.78,-51.22"/>
<polygon fill="blue" stroke="blue" points="3672.56,-47.8 3662,-48.69 3670.81,-54.58 3672.56,-47.8"/>
</g>
<!-- Entitymap&#45;&gt;EntityLoaderFactory -->
<g id="edge82" class="edge">
<title>Entitymap&#45;&gt;EntityLoaderFactory</title>
<path fill="none" stroke="blue" d="M3856.78,-49.13C3847.35,-53.49 3836.46,-57.74 3826,-60 3781.54,-69.61 859.01,-98.58 294.72,-104.09"/>
<polygon fill="blue" stroke="blue" points="294.56,-100.59 284.6,-104.19 294.63,-107.59 294.56,-100.59"/>
</g>
<!-- Entitymap&#45;&gt;EntityMacro -->
<g id="edge83" class="edge">
<title>Entitymap&#45;&gt;EntityMacro</title>
<path fill="none" stroke="blue" d="M3862.68,-50.33C3850.28,-59.23 3833.65,-69.35 3817,-74 3770.03,-87.12 353.37,-85.57 306,-74 290.66,-70.25 274.98,-62.87 261.8,-55.46"/>
<polygon fill="blue" stroke="blue" points="263.51,-52.4 253.11,-50.36 259.97,-58.44 263.51,-52.4"/>
</g>
<!-- Entitymap&#45;&gt;EntityMacroEnd -->
<g id="edge84" class="edge">
<title>Entitymap&#45;&gt;EntityMacroEnd</title>
<path fill="none" stroke="blue" d="M3862.68,-50.33C3850.28,-59.23 3833.65,-69.35 3817,-74 3768.26,-87.62 222.44,-84.82 173,-74 155.79,-70.23 137.91,-62.73 122.87,-55.22"/>
<polygon fill="blue" stroke="blue" points="124.4,-52.07 113.91,-50.59 121.18,-58.29 124.4,-52.07"/>
</g>
<!-- Helper&#45;&gt;Mediamap -->
<g id="edge18" class="edge">
<title>Helper&#45;&gt;Mediamap</title>
<path fill="none" stroke="red" d="M4153.32,-93.71C4147.4,-91.49 4141.06,-89.42 4135,-88 4000.72,-56.63 3959.65,-93.94 3826,-60 3819.15,-58.26 3812.06,-55.81 3805.3,-53.12"/>
<polygon fill="red" stroke="red" points="3806.27,-49.72 3795.69,-49.05 3803.54,-56.17 3806.27,-49.72"/>
</g>
<!-- Helper&#45;&gt;Entitymap -->
<g id="edge19" class="edge">
<title>Helper&#45;&gt;Entitymap</title>
<path fill="none" stroke="red" d="M4152.71,-94.05C4146.94,-91.87 4140.81,-89.72 4135,-88 4067.49,-68 3987.66,-52.55 3936.23,-43.62"/>
<polygon fill="red" stroke="red" points="3936.78,-40.16 3926.33,-41.92 3935.6,-47.06 3936.78,-40.16"/>
</g>
<!-- MediatoEntitymap&#45;&gt;Mediamap -->
<g id="edge20" class="edge">
<title>MediatoEntitymap&#45;&gt;Mediamap</title>
<path fill="none" stroke="red" d="M3992.34,-93.71C3927.6,-80.8 3830.02,-61.26 3826,-60 3819.46,-57.96 3812.66,-55.42 3806.11,-52.75"/>
<polygon fill="red" stroke="red" points="3807.33,-49.47 3796.76,-48.8 3804.61,-55.92 3807.33,-49.47"/>
</g>
<!-- MediatoEntitymap&#45;&gt;Entitymap -->
<g id="edge21" class="edge">
<title>MediatoEntitymap&#45;&gt;Entitymap</title>
<path fill="none" stroke="red" d="M4013.39,-89.98C3986.89,-78.81 3950.69,-63.54 3923.16,-51.93"/>
<polygon fill="red" stroke="red" points="3924.38,-48.65 3913.81,-47.99 3921.66,-55.1 3924.38,-48.65"/>
</g>
<!-- MouseUtils&#45;&gt;Mediamap -->
<g id="edge22" class="edge">
<title>MouseUtils&#45;&gt;Mediamap</title>
<path fill="none" stroke="red" d="M4245.85,-93.37C4238.04,-91.28 4229.8,-89.35 4222,-88 4048.14,-57.94 3997.43,-101.73 3826,-60 3818.9,-58.27 3811.56,-55.75 3804.59,-52.96"/>
<polygon fill="red" stroke="red" points="3805.94,-49.73 3795.37,-49.04 3803.2,-56.17 3805.94,-49.73"/>
</g>
<!-- MouseUtils&#45;&gt;Entitymap -->
<g id="edge23" class="edge">
<title>MouseUtils&#45;&gt;Entitymap</title>
<path fill="none" stroke="red" d="M4244.77,-93.61C4237.26,-91.58 4229.41,-89.61 4222,-88 4122.88,-66.52 4005.66,-50.17 3938.25,-41.62"/>
<polygon fill="red" stroke="red" points="3938.63,-38.14 3928.27,-40.37 3937.76,-45.09 3938.63,-38.14"/>
</g>
<!-- SystemList&#45;&gt;ButtonSys -->
<g id="edge90" class="edge">
<title>SystemList&#45;&gt;ButtonSys</title>
<path fill="none" stroke="blue" d="M3713.61,-122.04C3701,-129.71 3684.82,-138.07 3669,-142 3636.11,-150.17 2481.81,-150.48 2449,-142 2437.21,-138.95 2425.29,-133.26 2414.92,-127.29"/>
<polygon fill="blue" stroke="blue" points="2416.62,-124.23 2406.26,-122.03 2412.99,-130.21 2416.62,-124.23"/>
</g>
<!-- SystemList&#45;&gt;ISystem -->
<g id="edge24" class="edge">
<title>SystemList&#45;&gt;ISystem</title>
<path fill="none" stroke="red" d="M3700.77,-93.28C3693.31,-91.23 3685.45,-89.33 3678,-88 3427.41,-43.25 3121.72,-36.11 3002.76,-35.1"/>
<polygon fill="red" stroke="red" points="3002.53,-31.6 2992.5,-35.02 3002.48,-38.6 3002.53,-31.6"/>
</g>
<!-- SystemList&#45;&gt;ClickableSys -->
<g id="edge91" class="edge">
<title>SystemList&#45;&gt;ClickableSys</title>
<path fill="none" stroke="blue" d="M3713.61,-122.04C3701,-129.71 3684.82,-138.07 3669,-142 3617.56,-154.78 2766.68,-153.76 2715,-142 2701.31,-138.88 2687.2,-132.94 2674.97,-126.77"/>
<polygon fill="blue" stroke="blue" points="2676.49,-123.62 2666.01,-122.05 2673.23,-129.81 2676.49,-123.62"/>
</g>
<!-- SystemList&#45;&gt;DialogSys -->
<g id="edge92" class="edge">
<title>SystemList&#45;&gt;DialogSys</title>
<path fill="none" stroke="blue" d="M3713.61,-122.04C3701,-129.71 3684.82,-138.07 3669,-142 3633.09,-150.92 2372.85,-151.14 2337,-142 2325.07,-138.96 2312.96,-133.27 2302.44,-127.29"/>
<polygon fill="blue" stroke="blue" points="2304.01,-124.16 2293.64,-122.03 2300.42,-130.17 2304.01,-124.16"/>
</g>
<!-- SystemList&#45;&gt;GameRenderSys -->
<g id="edge88" class="edge">
<title>SystemList&#45;&gt;GameRenderSys</title>
<path fill="none" stroke="blue" d="M3713.61,-122.04C3701,-129.71 3684.82,-138.07 3669,-142 3626.08,-152.66 2916.39,-150.53 2873,-142 2856.92,-138.84 2840.08,-132.72 2825.49,-126.41"/>
<polygon fill="blue" stroke="blue" points="2826.81,-123.16 2816.26,-122.26 2823.95,-129.55 2826.81,-123.16"/>
</g>
<!-- SystemList&#45;&gt;LoadingSys -->
<g id="edge89" class="edge">
<title>SystemList&#45;&gt;LoadingSys</title>
<path fill="none" stroke="blue" d="M3713.61,-122.04C3701,-129.71 3684.82,-138.07 3669,-142 3629.1,-151.91 3524.11,-151.02 3484,-142 3470.04,-138.86 3455.63,-132.85 3443.16,-126.62"/>
<polygon fill="blue" stroke="blue" points="3444.52,-123.39 3434.04,-121.86 3441.28,-129.59 3444.52,-123.39"/>
</g>
<!-- SystemList&#45;&gt;MovementSys -->
<g id="edge85" class="edge">
<title>SystemList&#45;&gt;MovementSys</title>
<path fill="none" stroke="blue" d="M3713.61,-122.04C3701,-129.71 3684.82,-138.07 3669,-142 3617.67,-154.75 3244.74,-152.98 3193,-142 3178.22,-138.86 3162.87,-132.84 3149.55,-126.6"/>
<polygon fill="blue" stroke="blue" points="3150.77,-123.3 3140.25,-122.06 3147.7,-129.59 3150.77,-123.3"/>
</g>
<!-- SystemList&#45;&gt;MovieRenderSys -->
<g id="edge87" class="edge">
<title>SystemList&#45;&gt;MovieRenderSys</title>
<path fill="none" stroke="blue" d="M3713.61,-122.04C3701,-129.71 3684.82,-138.07 3669,-142 3635.14,-150.41 3389.26,-148.6 3355,-142 3338.6,-138.84 3321.38,-132.72 3306.46,-126.41"/>
<polygon fill="blue" stroke="blue" points="3307.57,-123.08 3297.01,-122.26 3304.76,-129.49 3307.57,-123.08"/>
</g>
<!-- SystemList&#45;&gt;PersistentSys -->
<g id="edge93" class="edge">
<title>SystemList&#45;&gt;PersistentSys</title>
<path fill="none" stroke="blue" d="M3713.61,-122.04C3701,-129.71 3684.82,-138.07 3669,-142 3639.72,-149.27 2612.43,-148.62 2583,-142 2569.15,-138.89 2554.86,-132.95 2542.46,-126.77"/>
<polygon fill="blue" stroke="blue" points="2543.87,-123.56 2533.39,-122.05 2540.64,-129.77 2543.87,-123.56"/>
</g>
<!-- SystemList&#45;&gt;PrintMovementSys -->
<g id="edge86" class="edge">
<title>SystemList&#45;&gt;PrintMovementSys</title>
<path fill="none" stroke="blue" d="M3713.61,-122.04C3701,-129.71 3684.82,-138.07 3669,-142 3635.63,-150.29 3083.86,-148.02 3050,-142 3031.95,-138.79 3012.86,-132.5 2996.38,-126.06"/>
<polygon fill="blue" stroke="blue" points="2997.58,-122.77 2987,-122.27 2994.96,-129.26 2997.58,-122.77"/>
</g>
<!-- main -->
<g id="node38" class="node">
<title>main</title>
<ellipse fill="none" stroke="black" cx="3640" cy="-250" rx="28.7" ry="18"/>
<text text-anchor="middle" x="3640" y="-246.3" font-family="Times,serif" font-size="14.00">main</text>
</g>
<!-- main&#45;&gt;Size -->
<g id="edge25" class="edge">
<title>main&#45;&gt;Size</title>
<path fill="none" stroke="blue" d="M3629.36,-233.26C3612.64,-208.52 3580.08,-160.37 3560.36,-131.2"/>
<polygon fill="blue" stroke="blue" points="3563.19,-129.13 3554.69,-122.81 3557.39,-133.05 3563.19,-129.13"/>
</g>
<!-- main&#45;&gt;Application -->
<g id="edge26" class="edge">
<title>main&#45;&gt;Application</title>
<path fill="none" stroke="blue" d="M3654.42,-234.15C3663.33,-224.98 3674.96,-213.01 3685.11,-202.56"/>
<polygon fill="blue" stroke="blue" points="3687.72,-204.9 3692.17,-195.29 3682.7,-200.02 3687.72,-204.9"/>
</g>
</g>
</svg>
