<?xml version="1.0" encoding="UTF-8" standalone="no"?>
<!DOCTYPE svg PUBLIC "-//W3C//DTD SVG 1.1//EN"
 "http://www.w3.org/Graphics/SVG/1.1/DTD/svg11.dtd">
<!-- Generated by graphviz version 2.43.0 (0)
 -->
<!-- Title: %3 Pages: 1 -->
<svg width="4222pt" height="292pt"
 viewBox="0.00 0.00 4222.15 292.00" xmlns="http://www.w3.org/2000/svg" xmlns:xlink="http://www.w3.org/1999/xlink">
<g id="graph0" class="graph" transform="scale(1 1) rotate(0) translate(4 288)">
<title>%3</title>
<polygon fill="white" stroke="transparent" points="-4,4 -4,-288 4218.15,-288 4218.15,4 -4,4"/>
<g id="clust1" class="cluster">
<title>cluster_../Emmoria/inc/component/functional</title>
<polygon fill="none" stroke="black" points="1882,-8 1882,-60 2941,-60 2941,-8 1882,-8"/>
</g>
<g id="clust2" class="cluster">
<title>cluster_../Emmoria/inc/component/tag</title>
<polygon fill="none" stroke="black" points="1178,-8 1178,-60 1874,-60 1874,-8 1178,-8"/>
</g>
<g id="clust3" class="cluster">
<title>cluster_../Emmoria/inc/core</title>
<polygon fill="none" stroke="black" points="971,-152 971,-204 1091,-204 1091,-152 971,-152"/>
</g>
<g id="clust4" class="cluster">
<title>cluster_../Emmoria/inc/entity</title>
<polygon fill="none" stroke="black" points="8,-8 8,-132 293,-132 293,-8 8,-8"/>
</g>
<g id="clust5" class="cluster">
<title>cluster_../Emmoria/inc/system</title>
<polygon fill="none" stroke="black" points="2949,-8 2949,-132 4203,-132 4203,-8 2949,-8"/>
</g>
<g id="clust6" class="cluster">
<title>cluster_../Emmoria/inc/util</title>
<polygon fill="none" stroke="black" points="301,-8 301,-132 1170,-132 1170,-8 301,-8"/>
</g>
<g id="clust7" class="cluster">
<title>cluster_../Emmoria</title>
<polygon fill="none" stroke="black" points="875,-224 875,-276 949,-276 949,-224 875,-224"/>
</g>
<!-- MovieComp -->
<g id="node1" class="node">
<title>MovieComp</title>
<ellipse fill="none" stroke="black" cx="2072" cy="-34" rx="55.79" ry="18"/>
<text text-anchor="middle" x="2072" y="-30.3" font-family="Times,serif" font-size="14.00">MovieComp</text>
</g>
<!-- Mediamap -->
<g id="node2" class="node">
<title>Mediamap</title>
<ellipse fill="none" stroke="black" cx="1113" cy="-34" rx="49.29" ry="18"/>
<text text-anchor="middle" x="1113" y="-30.3" font-family="Times,serif" font-size="14.00">Mediamap</text>
</g>
<!-- MovieComp&#45;&gt;Mediamap -->
<g id="edge1" class="edge">
<title>MovieComp&#45;&gt;Mediamap</title>
<path fill="none" stroke="red" d="M2048.59,-50.56C2034.62,-59.42 2016.12,-69.42 1998,-74 1954.1,-85.1 1226.76,-85.62 1183,-74 1169.09,-70.31 1155.07,-63.13 1143.26,-55.86"/>
<polygon fill="red" stroke="red" points="1145.01,-52.82 1134.71,-50.34 1141.21,-58.71 1145.01,-52.82"/>
</g>
<!-- PositionComp -->
<g id="node3" class="node">
<title>PositionComp</title>
<ellipse fill="none" stroke="black" cx="2871" cy="-34" rx="61.99" ry="18"/>
<text text-anchor="middle" x="2871" y="-30.3" font-family="Times,serif" font-size="14.00">PositionComp</text>
</g>
<!-- Position -->
<g id="node4" class="node">
<title>Position</title>
<ellipse fill="none" stroke="black" cx="802" cy="-106" rx="39.79" ry="18"/>
<text text-anchor="middle" x="802" y="-102.3" font-family="Times,serif" font-size="14.00">Position</text>
</g>
<!-- PositionComp&#45;&gt;Position -->
<g id="edge2" class="edge">
<title>PositionComp&#45;&gt;Position</title>
<path fill="none" stroke="red" d="M2837.66,-49.24C2825.97,-53.56 2812.61,-57.75 2800,-60 2373.35,-136.08 1276.58,-11.53 850,-88 846.74,-88.58 843.4,-89.36 840.08,-90.27"/>
<polygon fill="red" stroke="red" points="838.8,-87 830.27,-93.28 840.85,-93.69 838.8,-87"/>
</g>
<!-- SizeComp -->
<g id="node5" class="node">
<title>SizeComp</title>
<ellipse fill="none" stroke="black" cx="2593" cy="-34" rx="48.19" ry="18"/>
<text text-anchor="middle" x="2593" y="-30.3" font-family="Times,serif" font-size="14.00">SizeComp</text>
</g>
<!-- Size -->
<g id="node6" class="node">
<title>Size</title>
<ellipse fill="none" stroke="black" cx="717" cy="-106" rx="27" ry="18"/>
<text text-anchor="middle" x="717" y="-102.3" font-family="Times,serif" font-size="14.00">Size</text>
</g>
<!-- SizeComp&#45;&gt;Size -->
<g id="edge3" class="edge">
<title>SizeComp&#45;&gt;Size</title>
<path fill="none" stroke="red" d="M2566.77,-49.11C2557.35,-53.47 2546.45,-57.72 2536,-60 2342.41,-102.18 945.99,-43.13 753,-88 750.81,-88.51 748.6,-89.16 746.4,-89.92"/>
<polygon fill="red" stroke="red" points="744.97,-86.72 737.01,-93.72 747.6,-93.21 744.97,-86.72"/>
</g>
<!-- ClickableComp -->
<g id="node7" class="node">
<title>ClickableComp</title>
<ellipse fill="none" stroke="black" cx="2725" cy="-34" rx="66.09" ry="18"/>
<text text-anchor="middle" x="2725" y="-30.3" font-family="Times,serif" font-size="14.00">ClickableComp</text>
</g>
<!-- LoadComp -->
<g id="node8" class="node">
<title>LoadComp</title>
<ellipse fill="none" stroke="black" cx="2197" cy="-34" rx="50.89" ry="18"/>
<text text-anchor="middle" x="2197" y="-30.3" font-family="Times,serif" font-size="14.00">LoadComp</text>
</g>
<!-- RenderableComp -->
<g id="node9" class="node">
<title>RenderableComp</title>
<ellipse fill="none" stroke="black" cx="2454" cy="-34" rx="72.59" ry="18"/>
<text text-anchor="middle" x="2454" y="-30.3" font-family="Times,serif" font-size="14.00">RenderableComp</text>
</g>
<!-- SpriteComp -->
<g id="node10" class="node">
<title>SpriteComp</title>
<ellipse fill="none" stroke="black" cx="1944" cy="-34" rx="53.89" ry="18"/>
<text text-anchor="middle" x="1944" y="-30.3" font-family="Times,serif" font-size="14.00">SpriteComp</text>
</g>
<!-- TextComp -->
<g id="node11" class="node">
<title>TextComp</title>
<ellipse fill="none" stroke="black" cx="2314" cy="-34" rx="48.99" ry="18"/>
<text text-anchor="middle" x="2314" y="-30.3" font-family="Times,serif" font-size="14.00">TextComp</text>
</g>
<!-- ButtonComp -->
<g id="node12" class="node">
<title>ButtonComp</title>
<ellipse fill="none" stroke="black" cx="1243" cy="-34" rx="56.59" ry="18"/>
<text text-anchor="middle" x="1243" y="-30.3" font-family="Times,serif" font-size="14.00">ButtonComp</text>
</g>
<!-- DialogChainComp -->
<g id="node13" class="node">
<title>DialogChainComp</title>
<ellipse fill="none" stroke="black" cx="1395" cy="-34" rx="77.19" ry="18"/>
<text text-anchor="middle" x="1395" y="-30.3" font-family="Times,serif" font-size="14.00">DialogChainComp</text>
</g>
<!-- DialogChainFragmentComp -->
<g id="node14" class="node">
<title>DialogChainFragmentComp</title>
<ellipse fill="none" stroke="black" cx="1754" cy="-34" rx="111.58" ry="18"/>
<text text-anchor="middle" x="1754" y="-30.3" font-family="Times,serif" font-size="14.00">DialogChainFragmentComp</text>
</g>
<!-- PersistentComp -->
<g id="node15" class="node">
<title>PersistentComp</title>
<ellipse fill="none" stroke="black" cx="1557" cy="-34" rx="66.89" ry="18"/>
<text text-anchor="middle" x="1557" y="-30.3" font-family="Times,serif" font-size="14.00">PersistentComp</text>
</g>
<!-- Application -->
<g id="node16" class="node">
<title>Application</title>
<ellipse fill="none" stroke="black" cx="1031" cy="-178" rx="51.99" ry="18"/>
<text text-anchor="middle" x="1031" y="-174.3" font-family="Times,serif" font-size="14.00">Application</text>
</g>
<!-- ISystem -->
<g id="node21" class="node">
<title>ISystem</title>
<ellipse fill="none" stroke="black" cx="3562" cy="-34" rx="40.09" ry="18"/>
<text text-anchor="middle" x="3562" y="-30.3" font-family="Times,serif" font-size="14.00">ISystem</text>
</g>
<!-- Application&#45;&gt;ISystem -->
<g id="edge29" class="edge">
<title>Application&#45;&gt;ISystem</title>
<path fill="none" stroke="blue" d="M1082.93,-176.76C1491.62,-174.82 4175.41,-160.99 4204,-132 4217.73,-118.07 4217.25,-102.39 4204,-88 4164.23,-44.81 3757.72,-36.81 3612.89,-35.34"/>
<polygon fill="blue" stroke="blue" points="3612.56,-31.83 3602.52,-35.24 3612.49,-38.83 3612.56,-31.83"/>
</g>
<!-- SystemList -->
<g id="node34" class="node">
<title>SystemList</title>
<ellipse fill="none" stroke="black" cx="1111" cy="-106" rx="50.89" ry="18"/>
<text text-anchor="middle" x="1111" y="-102.3" font-family="Times,serif" font-size="14.00">SystemList</text>
</g>
<!-- Application&#45;&gt;SystemList -->
<g id="edge28" class="edge">
<title>Application&#45;&gt;SystemList</title>
<path fill="none" stroke="blue" d="M1049.15,-161.12C1059.79,-151.81 1073.4,-139.9 1085.15,-129.62"/>
<polygon fill="blue" stroke="blue" points="1087.7,-132.04 1092.92,-122.82 1083.09,-126.77 1087.7,-132.04"/>
</g>
<!-- ApplicationParameters -->
<g id="node35" class="node">
<title>ApplicationParameters</title>
<ellipse fill="none" stroke="black" cx="951" cy="-106" rx="91.78" ry="18"/>
<text text-anchor="middle" x="951" y="-102.3" font-family="Times,serif" font-size="14.00">ApplicationParameters</text>
</g>
<!-- Application&#45;&gt;ApplicationParameters -->
<g id="edge27" class="edge">
<title>Application&#45;&gt;ApplicationParameters</title>
<path fill="none" stroke="blue" d="M1012.85,-161.12C1002.51,-152.07 989.36,-140.57 977.85,-130.49"/>
<polygon fill="blue" stroke="blue" points="980.03,-127.75 970.2,-123.8 975.42,-133.02 980.03,-127.75"/>
</g>
<!-- EntityLoaderFactory -->
<g id="node17" class="node">
<title>EntityLoaderFactory</title>
<ellipse fill="none" stroke="black" cx="201" cy="-106" rx="83.69" ry="18"/>
<text text-anchor="middle" x="201" y="-102.3" font-family="Times,serif" font-size="14.00">EntityLoaderFactory</text>
</g>
<!-- EntityLoaderFactory&#45;&gt;PositionComp -->
<g id="edge34" class="edge">
<title>EntityLoaderFactory&#45;&gt;PositionComp</title>
<path fill="none" stroke="blue" d="M259.43,-93.08C271.78,-91 284.78,-89.14 297,-88 573.92,-62.11 2526.11,-108.39 2800,-60 2809.26,-58.36 2818.93,-55.67 2828.04,-52.65"/>
<polygon fill="blue" stroke="blue" points="2829.38,-55.88 2837.66,-49.27 2827.07,-49.28 2829.38,-55.88"/>
</g>
<!-- EntityLoaderFactory&#45;&gt;SizeComp -->
<g id="edge35" class="edge">
<title>EntityLoaderFactory&#45;&gt;SizeComp</title>
<path fill="none" stroke="blue" d="M259.69,-93.05C271.97,-90.99 284.87,-89.14 297,-88 544.7,-64.68 2292.82,-112.57 2536,-60 2543.19,-58.45 2550.58,-55.95 2557.57,-53.13"/>
<polygon fill="blue" stroke="blue" points="2559,-56.32 2566.78,-49.12 2556.21,-49.9 2559,-56.32"/>
</g>
<!-- EntityLoaderFactory&#45;&gt;ClickableComp -->
<g id="edge37" class="edge">
<title>EntityLoaderFactory&#45;&gt;ClickableComp</title>
<path fill="none" stroke="blue" d="M259.43,-93.09C271.79,-91.01 284.78,-89.15 297,-88 557.32,-63.57 2392.17,-103.42 2650,-60 2659.95,-58.32 2670.37,-55.55 2680.16,-52.45"/>
<polygon fill="blue" stroke="blue" points="2681.34,-55.75 2689.72,-49.26 2679.12,-49.11 2681.34,-55.75"/>
</g>
<!-- EntityLoaderFactory&#45;&gt;RenderableComp -->
<g id="edge33" class="edge">
<title>EntityLoaderFactory&#45;&gt;RenderableComp</title>
<path fill="none" stroke="blue" d="M259.69,-93.06C271.97,-91 284.87,-89.15 297,-88 526.55,-66.27 2144.18,-95.53 2372,-60 2382.92,-58.3 2394.41,-55.48 2405.21,-52.33"/>
<polygon fill="blue" stroke="blue" points="2406.36,-55.64 2414.9,-49.38 2404.32,-48.95 2406.36,-55.64"/>
</g>
<!-- EntityLoaderFactory&#45;&gt;SpriteComp -->
<g id="edge38" class="edge">
<title>EntityLoaderFactory&#45;&gt;SpriteComp</title>
<path fill="none" stroke="blue" d="M259.69,-93.1C271.97,-91.03 284.87,-89.17 297,-88 471.88,-71.07 1705.46,-93.16 1878,-60 1886.74,-58.32 1895.84,-55.58 1904.38,-52.52"/>
<polygon fill="blue" stroke="blue" points="1905.64,-55.78 1913.75,-48.96 1903.16,-49.24 1905.64,-55.78"/>
</g>
<!-- EntityLoaderFactory&#45;&gt;TextComp -->
<g id="edge36" class="edge">
<title>EntityLoaderFactory&#45;&gt;TextComp</title>
<path fill="none" stroke="blue" d="M259.69,-93.07C271.97,-91 284.87,-89.15 297,-88 513.82,-67.39 2044.16,-106.21 2257,-60 2263.95,-58.49 2271.1,-56.1 2277.88,-53.39"/>
<polygon fill="blue" stroke="blue" points="2279.69,-56.42 2287.49,-49.25 2276.92,-49.99 2279.69,-56.42"/>
</g>
<!-- EntityLoaderFactory&#45;&gt;ButtonComp -->
<g id="edge31" class="edge">
<title>EntityLoaderFactory&#45;&gt;ButtonComp</title>
<path fill="none" stroke="blue" d="M259.96,-93.19C272.16,-91.13 284.96,-89.25 297,-88 490.94,-67.84 982.51,-96.78 1174,-60 1183.1,-58.25 1192.59,-55.48 1201.53,-52.41"/>
<polygon fill="blue" stroke="blue" points="1202.75,-55.69 1210.95,-48.99 1200.36,-49.11 1202.75,-55.69"/>
</g>
<!-- EntityLoaderFactory&#45;&gt;DialogChainComp -->
<g id="edge32" class="edge">
<title>EntityLoaderFactory&#45;&gt;DialogChainComp</title>
<path fill="none" stroke="blue" d="M259.96,-93.15C272.16,-91.09 284.96,-89.23 297,-88 520.82,-65.21 1086.73,-94.79 1309,-60 1320.52,-58.2 1332.68,-55.3 1344.11,-52.11"/>
<polygon fill="blue" stroke="blue" points="1345.31,-55.41 1353.93,-49.25 1343.35,-48.69 1345.31,-55.41"/>
</g>
<!-- EntityMacro -->
<g id="node18" class="node">
<title>EntityMacro</title>
<ellipse fill="none" stroke="black" cx="72" cy="-34" rx="55.79" ry="18"/>
<text text-anchor="middle" x="72" y="-30.3" font-family="Times,serif" font-size="14.00">EntityMacro</text>
</g>
<!-- EntityLoaderFactory&#45;&gt;EntityMacro -->
<g id="edge4" class="edge">
<title>EntityLoaderFactory&#45;&gt;EntityMacro</title>
<path fill="none" stroke="red" d="M171.73,-89.12C152.9,-78.9 128.31,-65.55 108.25,-54.67"/>
<polygon fill="red" stroke="red" points="109.85,-51.56 99.39,-49.86 106.51,-57.71 109.85,-51.56"/>
</g>
<!-- EntityMacroEnd -->
<g id="node19" class="node">
<title>EntityMacroEnd</title>
<ellipse fill="none" stroke="black" cx="215" cy="-34" rx="69.59" ry="18"/>
<text text-anchor="middle" x="215" y="-30.3" font-family="Times,serif" font-size="14.00">EntityMacroEnd</text>
</g>
<!-- EntityLoaderFactory&#45;&gt;EntityMacroEnd -->
<g id="edge5" class="edge">
<title>EntityLoaderFactory&#45;&gt;EntityMacroEnd</title>
<path fill="none" stroke="red" d="M204.46,-87.7C206,-79.98 207.86,-70.71 209.58,-62.11"/>
<polygon fill="red" stroke="red" points="213.05,-62.6 211.58,-52.1 206.19,-61.22 213.05,-62.6"/>
</g>
<!-- EntityLoaderFactory&#45;&gt;ApplicationParameters -->
<g id="edge30" class="edge">
<title>EntityLoaderFactory&#45;&gt;ApplicationParameters</title>
<path fill="none" stroke="blue" d="M238.61,-122.28C258.28,-129.91 283,-138.17 306,-142 364.75,-151.79 783.2,-151.46 842,-142 862.27,-138.74 883.89,-132.27 902.47,-125.71"/>
<polygon fill="blue" stroke="blue" points="903.69,-128.99 911.9,-122.28 901.3,-122.41 903.69,-128.99"/>
</g>
<!-- ButtonSys -->
<g id="node20" class="node">
<title>ButtonSys</title>
<ellipse fill="none" stroke="black" cx="3167" cy="-106" rx="47.39" ry="18"/>
<text text-anchor="middle" x="3167" y="-102.3" font-family="Times,serif" font-size="14.00">ButtonSys</text>
</g>
<!-- ButtonSys&#45;&gt;MovieComp -->
<g id="edge43" class="edge">
<title>ButtonSys&#45;&gt;MovieComp</title>
<path fill="none" stroke="blue" d="M3132.98,-93.28C3125.49,-91.14 3117.54,-89.21 3110,-88 2896.43,-53.69 2349.09,-102.54 2137,-60 2128.65,-58.33 2119.97,-55.68 2111.78,-52.72"/>
<polygon fill="blue" stroke="blue" points="2113.03,-49.45 2102.44,-49.15 2110.53,-55.99 2113.03,-49.45"/>
</g>
<!-- ButtonSys&#45;&gt;Mediamap -->
<g id="edge44" class="edge">
<title>ButtonSys&#45;&gt;Mediamap</title>
<path fill="none" stroke="blue" d="M3133.29,-93.28C3125.72,-91.12 3117.66,-89.17 3110,-88 2897.35,-55.39 1384.77,-103.1 1174,-60 1166.12,-58.39 1157.96,-55.78 1150.28,-52.83"/>
<polygon fill="blue" stroke="blue" points="1151.44,-49.53 1140.86,-48.98 1148.79,-56.01 1151.44,-49.53"/>
</g>
<!-- ButtonSys&#45;&gt;ClickableComp -->
<g id="edge41" class="edge">
<title>ButtonSys&#45;&gt;ClickableComp</title>
<path fill="none" stroke="blue" d="M3132.61,-93.54C3125.22,-91.42 3117.4,-89.42 3110,-88 2974.15,-61.88 2935.42,-88.29 2800,-60 2790.53,-58.02 2780.58,-55.24 2771.15,-52.24"/>
<polygon fill="blue" stroke="blue" points="2772.13,-48.88 2761.54,-49.06 2769.93,-55.52 2772.13,-48.88"/>
</g>
<!-- ButtonSys&#45;&gt;TextComp -->
<g id="edge42" class="edge">
<title>ButtonSys&#45;&gt;TextComp</title>
<path fill="none" stroke="blue" d="M3132.97,-93.33C3125.48,-91.19 3117.54,-89.25 3110,-88 2786.16,-34.45 2692.15,-132.41 2372,-60 2364.79,-58.37 2357.36,-55.87 2350.33,-53.06"/>
<polygon fill="blue" stroke="blue" points="2351.6,-49.8 2341.03,-49.1 2348.86,-56.24 2351.6,-49.8"/>
</g>
<!-- ButtonSys&#45;&gt;ButtonComp -->
<g id="edge39" class="edge">
<title>ButtonSys&#45;&gt;ButtonComp</title>
<path fill="none" stroke="blue" d="M3133.29,-93.29C3125.72,-91.12 3117.65,-89.18 3110,-88 2714.39,-27.12 1702.16,-135.13 1309,-60 1300.52,-58.38 1291.71,-55.76 1283.4,-52.81"/>
<polygon fill="blue" stroke="blue" points="1284.5,-49.49 1273.91,-49.24 1282.04,-56.04 1284.5,-49.49"/>
</g>
<!-- ButtonSys&#45;&gt;PersistentComp -->
<g id="edge40" class="edge">
<title>ButtonSys&#45;&gt;PersistentComp</title>
<path fill="none" stroke="blue" d="M3133.29,-93.31C3125.71,-91.14 3117.65,-89.19 3110,-88 2785.62,-37.51 1956.64,-115.01 1633,-60 1623.04,-58.31 1612.6,-55.56 1602.76,-52.49"/>
<polygon fill="blue" stroke="blue" points="1603.76,-49.13 1593.16,-49.34 1601.57,-55.78 1603.76,-49.13"/>
</g>
<!-- ButtonSys&#45;&gt;ISystem -->
<g id="edge6" class="edge">
<title>ButtonSys&#45;&gt;ISystem</title>
<path fill="none" stroke="red" d="M3201.75,-93.63C3208.74,-91.58 3216.07,-89.59 3223,-88 3325.11,-64.64 3446.89,-48.36 3513.14,-40.46"/>
<polygon fill="red" stroke="red" points="3513.76,-43.91 3523.28,-39.27 3512.94,-36.96 3513.76,-43.91"/>
</g>
<!-- ClickableSys -->
<g id="node22" class="node">
<title>ClickableSys</title>
<ellipse fill="none" stroke="black" cx="3818" cy="-106" rx="57.39" ry="18"/>
<text text-anchor="middle" x="3818" y="-102.3" font-family="Times,serif" font-size="14.00">ClickableSys</text>
</g>
<!-- ClickableSys&#45;&gt;PositionComp -->
<g id="edge47" class="edge">
<title>ClickableSys&#45;&gt;PositionComp</title>
<path fill="none" stroke="blue" d="M3777.79,-93.16C3769.34,-91.09 3760.43,-89.22 3752,-88 3396.8,-36.72 3298.07,-124.34 2945,-60 2935.09,-58.2 2924.71,-55.33 2914.96,-52.18"/>
<polygon fill="blue" stroke="blue" points="2916.05,-48.86 2905.46,-48.96 2913.8,-55.49 2916.05,-48.86"/>
</g>
<!-- ClickableSys&#45;&gt;SizeComp -->
<g id="edge46" class="edge">
<title>ClickableSys&#45;&gt;SizeComp</title>
<path fill="none" stroke="blue" d="M3777.8,-93.1C3769.35,-91.04 3760.44,-89.18 3752,-88 3509.39,-54.12 2889.1,-113.31 2650,-60 2643.06,-58.45 2635.91,-56.05 2629.13,-53.33"/>
<polygon fill="blue" stroke="blue" points="2630.09,-49.93 2619.52,-49.18 2627.32,-56.36 2630.09,-49.93"/>
</g>
<!-- ClickableSys&#45;&gt;ClickableComp -->
<g id="edge45" class="edge">
<title>ClickableSys&#45;&gt;ClickableComp</title>
<path fill="none" stroke="blue" d="M3777.8,-93.13C3769.35,-91.06 3760.44,-89.2 3752,-88 3332.89,-28.62 3216.79,-133.94 2800,-60 2790.27,-58.27 2780.08,-55.54 2770.46,-52.51"/>
<polygon fill="blue" stroke="blue" points="2771.28,-49.09 2760.69,-49.26 2769.07,-55.73 2771.28,-49.09"/>
</g>
<!-- ClickableSys&#45;&gt;ISystem -->
<g id="edge7" class="edge">
<title>ClickableSys&#45;&gt;ISystem</title>
<path fill="none" stroke="red" d="M3776.3,-93.6C3729.21,-80.72 3652.95,-59.87 3605.24,-46.82"/>
<polygon fill="red" stroke="red" points="3606.08,-43.43 3595.51,-44.16 3604.24,-50.18 3606.08,-43.43"/>
</g>
<!-- MouseUtils -->
<g id="node33" class="node">
<title>MouseUtils</title>
<ellipse fill="none" stroke="black" cx="361" cy="-106" rx="51.99" ry="18"/>
<text text-anchor="middle" x="361" y="-102.3" font-family="Times,serif" font-size="14.00">MouseUtils</text>
</g>
<!-- ClickableSys&#45;&gt;MouseUtils -->
<g id="edge48" class="edge">
<title>ClickableSys&#45;&gt;MouseUtils</title>
<path fill="none" stroke="blue" d="M3791.99,-122.05C3778.02,-129.73 3760.18,-138.09 3743,-142 3698.15,-152.21 475.71,-152.82 431,-142 418.34,-138.94 405.4,-133.16 394.15,-127.12"/>
<polygon fill="blue" stroke="blue" points="395.57,-123.9 385.14,-122.04 392.13,-130 395.57,-123.9"/>
</g>
<!-- DialogSys -->
<g id="node23" class="node">
<title>DialogSys</title>
<ellipse fill="none" stroke="black" cx="3562" cy="-106" rx="47.39" ry="18"/>
<text text-anchor="middle" x="3562" y="-102.3" font-family="Times,serif" font-size="14.00">DialogSys</text>
</g>
<!-- DialogSys&#45;&gt;PositionComp -->
<g id="edge53" class="edge">
<title>DialogSys&#45;&gt;PositionComp</title>
<path fill="none" stroke="blue" d="M3527.95,-93.4C3520.47,-91.26 3512.53,-89.29 3505,-88 3259.39,-45.86 3189.81,-106.54 2945,-60 2935.31,-58.16 2925.15,-55.34 2915.58,-52.26"/>
<polygon fill="blue" stroke="blue" points="2916.44,-48.86 2905.85,-48.98 2914.21,-55.49 2916.44,-48.86"/>
</g>
<!-- DialogSys&#45;&gt;Position -->
<g id="edge10" class="edge">
<title>DialogSys&#45;&gt;Position</title>
<path fill="none" stroke="red" d="M3539.36,-122.03C3527.14,-129.71 3511.43,-138.07 3496,-142 3460.51,-151.05 894.18,-152.18 859,-142 848.63,-139 838.33,-133.49 829.4,-127.66"/>
<polygon fill="red" stroke="red" points="831.18,-124.64 820.97,-121.81 827.19,-130.39 831.18,-124.64"/>
</g>
<!-- DialogSys&#45;&gt;SizeComp -->
<g id="edge51" class="edge">
<title>DialogSys&#45;&gt;SizeComp</title>
<path fill="none" stroke="blue" d="M3527.97,-93.3C3520.49,-91.17 3512.54,-89.23 3505,-88 3317.37,-57.47 2835.39,-102.05 2650,-60 2643.06,-58.43 2635.92,-56.01 2629.14,-53.28"/>
<polygon fill="blue" stroke="blue" points="2630.1,-49.89 2619.53,-49.14 2627.33,-56.31 2630.1,-49.89"/>
</g>
<!-- DialogSys&#45;&gt;Size -->
<g id="edge9" class="edge">
<title>DialogSys&#45;&gt;Size</title>
<path fill="none" stroke="red" d="M3539.36,-122.03C3527.14,-129.71 3511.43,-138.07 3496,-142 3459.21,-151.38 797.83,-154.57 762,-142 753.77,-139.11 745.92,-134.02 739.16,-128.55"/>
<polygon fill="red" stroke="red" points="741.04,-125.54 731.22,-121.57 736.42,-130.8 741.04,-125.54"/>
</g>
<!-- DialogSys&#45;&gt;ClickableComp -->
<g id="edge55" class="edge">
<title>DialogSys&#45;&gt;ClickableComp</title>
<path fill="none" stroke="blue" d="M3527.96,-93.34C3520.48,-91.2 3512.54,-89.25 3505,-88 3195.67,-36.56 3108.47,-116.36 2800,-60 2790.28,-58.22 2780.1,-55.47 2770.48,-52.43"/>
<polygon fill="blue" stroke="blue" points="2771.29,-49.01 2760.7,-49.18 2769.09,-55.66 2771.29,-49.01"/>
</g>
<!-- DialogSys&#45;&gt;RenderableComp -->
<g id="edge54" class="edge">
<title>DialogSys&#45;&gt;RenderableComp</title>
<path fill="none" stroke="blue" d="M3527.98,-93.28C3520.49,-91.14 3512.54,-89.21 3505,-88 3079.61,-19.63 2961.18,-129.67 2536,-60 2525.09,-58.21 2513.61,-55.36 2502.81,-52.21"/>
<polygon fill="blue" stroke="blue" points="2503.7,-48.82 2493.12,-49.25 2501.66,-55.52 2503.7,-48.82"/>
</g>
<!-- DialogSys&#45;&gt;TextComp -->
<g id="edge52" class="edge">
<title>DialogSys&#45;&gt;TextComp</title>
<path fill="none" stroke="blue" d="M3527.98,-93.26C3520.49,-91.12 3512.55,-89.2 3505,-88 3256.25,-48.55 2618.01,-113.94 2372,-60 2364.78,-58.42 2357.35,-55.94 2350.31,-53.14"/>
<polygon fill="blue" stroke="blue" points="2351.59,-49.88 2341.01,-49.18 2348.84,-56.32 2351.59,-49.88"/>
</g>
<!-- DialogSys&#45;&gt;DialogChainComp -->
<g id="edge50" class="edge">
<title>DialogSys&#45;&gt;DialogChainComp</title>
<path fill="none" stroke="blue" d="M3528.29,-93.28C3520.72,-91.12 3512.66,-89.17 3505,-88 3060.35,-19.96 1925.88,-126.49 1481,-60 1469.46,-58.28 1457.3,-55.41 1445.87,-52.23"/>
<polygon fill="blue" stroke="blue" points="1446.63,-48.81 1436.05,-49.37 1444.68,-55.53 1446.63,-48.81"/>
</g>
<!-- DialogSys&#45;&gt;DialogChainFragmentComp -->
<g id="edge49" class="edge">
<title>DialogSys&#45;&gt;DialogChainFragmentComp</title>
<path fill="none" stroke="blue" d="M3528.29,-93.3C3520.72,-91.13 3512.65,-89.18 3505,-88 3147.64,-32.7 2237.5,-99.01 1878,-60 1860.3,-58.08 1841.37,-54.87 1823.77,-51.37"/>
<polygon fill="blue" stroke="blue" points="1824.07,-47.86 1813.57,-49.29 1822.67,-54.72 1824.07,-47.86"/>
</g>
<!-- DialogSys&#45;&gt;ISystem -->
<g id="edge8" class="edge">
<title>DialogSys&#45;&gt;ISystem</title>
<path fill="none" stroke="red" d="M3562,-87.7C3562,-79.98 3562,-70.71 3562,-62.11"/>
<polygon fill="red" stroke="red" points="3565.5,-62.1 3562,-52.1 3558.5,-62.1 3565.5,-62.1"/>
</g>
<!-- DialogSys&#45;&gt;ApplicationParameters -->
<g id="edge56" class="edge">
<title>DialogSys&#45;&gt;ApplicationParameters</title>
<path fill="none" stroke="blue" d="M3539.36,-122.03C3527.14,-129.71 3511.43,-138.07 3496,-142 3463.22,-150.36 1093.4,-147.37 1060,-142 1039.73,-138.74 1018.11,-132.27 999.53,-125.71"/>
<polygon fill="blue" stroke="blue" points="1000.7,-122.41 990.1,-122.28 998.31,-128.99 1000.7,-122.41"/>
</g>
<!-- GameRenderSys -->
<g id="node24" class="node">
<title>GameRenderSys</title>
<ellipse fill="none" stroke="black" cx="3426" cy="-106" rx="70.39" ry="18"/>
<text text-anchor="middle" x="3426" y="-102.3" font-family="Times,serif" font-size="14.00">GameRenderSys</text>
</g>
<!-- GameRenderSys&#45;&gt;Mediamap -->
<g id="edge62" class="edge">
<title>GameRenderSys&#45;&gt;Mediamap</title>
<path fill="none" stroke="blue" d="M3377.37,-92.95C3367.38,-90.92 3356.9,-89.12 3347,-88 3107.06,-60.91 1410.61,-108.19 1174,-60 1166.11,-58.39 1157.96,-55.78 1150.28,-52.84"/>
<polygon fill="blue" stroke="blue" points="1151.44,-49.54 1140.85,-48.99 1148.79,-56.02 1151.44,-49.54"/>
</g>
<!-- GameRenderSys&#45;&gt;PositionComp -->
<g id="edge58" class="edge">
<title>GameRenderSys&#45;&gt;PositionComp</title>
<path fill="none" stroke="blue" d="M3376.47,-93.21C3366.74,-91.22 3356.58,-89.36 3347,-88 3169.67,-62.88 3120.61,-95.17 2945,-60 2935.43,-58.08 2925.39,-55.27 2915.9,-52.21"/>
<polygon fill="blue" stroke="blue" points="2916.85,-48.84 2906.25,-48.96 2914.61,-55.47 2916.85,-48.84"/>
</g>
<!-- GameRenderSys&#45;&gt;SizeComp -->
<g id="edge60" class="edge">
<title>GameRenderSys&#45;&gt;SizeComp</title>
<path fill="none" stroke="blue" d="M3376.92,-93.07C3367.06,-91.07 3356.74,-89.23 3347,-88 3193.22,-68.51 2801.05,-94.85 2650,-60 2643.07,-58.4 2635.93,-55.97 2629.15,-53.24"/>
<polygon fill="blue" stroke="blue" points="2630.11,-49.84 2619.54,-49.09 2627.34,-56.27 2630.11,-49.84"/>
</g>
<!-- GameRenderSys&#45;&gt;RenderableComp -->
<g id="edge57" class="edge">
<title>GameRenderSys&#45;&gt;RenderableComp</title>
<path fill="none" stroke="blue" d="M3376.92,-93.03C3367.07,-91.03 3356.75,-89.21 3347,-88 2989.08,-43.67 2891.75,-119.32 2536,-60 2525.1,-58.18 2513.62,-55.32 2502.82,-52.16"/>
<polygon fill="blue" stroke="blue" points="2503.71,-48.77 2493.12,-49.2 2501.67,-55.47 2503.71,-48.77"/>
</g>
<!-- GameRenderSys&#45;&gt;SpriteComp -->
<g id="edge59" class="edge">
<title>GameRenderSys&#45;&gt;SpriteComp</title>
<path fill="none" stroke="blue" d="M3377.36,-93.01C3367.38,-90.98 3356.89,-89.16 3347,-88 3051.17,-53.4 2298.95,-118.98 2007,-60 1998.96,-58.38 1990.64,-55.79 1982.77,-52.87"/>
<polygon fill="blue" stroke="blue" points="1984.04,-49.61 1973.45,-49.2 1981.48,-56.13 1984.04,-49.61"/>
</g>
<!-- GameRenderSys&#45;&gt;TextComp -->
<g id="edge61" class="edge">
<title>GameRenderSys&#45;&gt;TextComp</title>
<path fill="none" stroke="blue" d="M3376.93,-92.99C3367.07,-90.98 3356.75,-89.18 3347,-88 3131.81,-61.98 2583.63,-106.85 2372,-60 2364.79,-58.4 2357.35,-55.92 2350.31,-53.12"/>
<polygon fill="blue" stroke="blue" points="2351.59,-49.86 2341.02,-49.16 2348.85,-56.3 2351.59,-49.86"/>
</g>
<!-- GameRenderSys&#45;&gt;ISystem -->
<g id="edge11" class="edge">
<title>GameRenderSys&#45;&gt;ISystem</title>
<path fill="none" stroke="red" d="M3455.85,-89.64C3476.92,-78.79 3505.22,-64.23 3527.3,-52.86"/>
<polygon fill="red" stroke="red" points="3529.05,-55.89 3536.34,-48.21 3525.85,-49.67 3529.05,-55.89"/>
</g>
<!-- GameRenderSys&#45;&gt;ApplicationParameters -->
<g id="edge63" class="edge">
<title>GameRenderSys&#45;&gt;ApplicationParameters</title>
<path fill="none" stroke="blue" d="M3394.74,-122.26C3378.33,-129.89 3357.6,-138.15 3338,-142 3275.91,-154.21 1122.47,-152.05 1060,-142 1039.73,-138.74 1018.11,-132.27 999.53,-125.71"/>
<polygon fill="blue" stroke="blue" points="1000.7,-122.41 990.1,-122.28 998.31,-128.99 1000.7,-122.41"/>
</g>
<!-- LoadingSys -->
<g id="node25" class="node">
<title>LoadingSys</title>
<ellipse fill="none" stroke="black" cx="3285" cy="-106" rx="52.79" ry="18"/>
<text text-anchor="middle" x="3285" y="-102.3" font-family="Times,serif" font-size="14.00">LoadingSys</text>
</g>
<!-- LoadingSys&#45;&gt;LoadComp -->
<g id="edge64" class="edge">
<title>LoadingSys&#45;&gt;LoadComp</title>
<path fill="none" stroke="blue" d="M3247.6,-93.2C3239.56,-91.1 3231.06,-89.2 3223,-88 3010.38,-56.24 2466.04,-105.84 2256,-60 2248.68,-58.4 2241.12,-55.91 2233.96,-53.11"/>
<polygon fill="blue" stroke="blue" points="2235.09,-49.79 2224.51,-49.16 2232.38,-56.25 2235.09,-49.79"/>
</g>
<!-- LoadingSys&#45;&gt;ISystem -->
<g id="edge12" class="edge">
<title>LoadingSys&#45;&gt;ISystem</title>
<path fill="none" stroke="red" d="M3324.65,-93.96C3332.07,-91.95 3339.76,-89.88 3347,-88 3405.72,-72.71 3473.77,-56.13 3517.32,-45.66"/>
<polygon fill="red" stroke="red" points="3518.39,-49 3527.3,-43.26 3516.76,-42.19 3518.39,-49"/>
</g>
<!-- Entitymap -->
<g id="node31" class="node">
<title>Entitymap</title>
<ellipse fill="none" stroke="black" cx="434" cy="-34" rx="48.19" ry="18"/>
<text text-anchor="middle" x="434" y="-30.3" font-family="Times,serif" font-size="14.00">Entitymap</text>
</g>
<!-- LoadingSys&#45;&gt;Entitymap -->
<g id="edge66" class="edge">
<title>LoadingSys&#45;&gt;Entitymap</title>
<path fill="none" stroke="blue" d="M3247.95,-93.19C3239.81,-91.06 3231.18,-89.15 3223,-88 2984.46,-54.32 1295.82,-66.4 1055,-60 847.59,-54.49 601.38,-43.15 491.69,-37.85"/>
<polygon fill="blue" stroke="blue" points="491.67,-34.34 481.51,-37.36 491.33,-41.34 491.67,-34.34"/>
</g>
<!-- LoadingSys&#45;&gt;ApplicationParameters -->
<g id="edge65" class="edge">
<title>LoadingSys&#45;&gt;ApplicationParameters</title>
<path fill="none" stroke="blue" d="M3260.48,-122.04C3247.29,-129.72 3230.4,-138.08 3214,-142 3155.81,-155.91 1119.07,-151.5 1060,-142 1039.73,-138.74 1018.11,-132.27 999.53,-125.71"/>
<polygon fill="blue" stroke="blue" points="1000.7,-122.41 990.1,-122.28 998.31,-128.99 1000.7,-122.41"/>
</g>
<!-- MovementSys -->
<g id="node26" class="node">
<title>MovementSys</title>
<ellipse fill="none" stroke="black" cx="3956" cy="-106" rx="62.29" ry="18"/>
<text text-anchor="middle" x="3956" y="-102.3" font-family="Times,serif" font-size="14.00">MovementSys</text>
</g>
<!-- MovementSys&#45;&gt;PositionComp -->
<g id="edge67" class="edge">
<title>MovementSys&#45;&gt;PositionComp</title>
<path fill="none" stroke="blue" d="M3912.09,-93.15C3902.87,-91.08 3893.17,-89.21 3884,-88 3677.02,-60.76 3150.47,-96.92 2945,-60 2935.09,-58.22 2924.7,-55.37 2914.95,-52.22"/>
<polygon fill="blue" stroke="blue" points="2916.04,-48.89 2905.45,-49 2913.8,-55.52 2916.04,-48.89"/>
</g>
<!-- MovementSys&#45;&gt;ISystem -->
<g id="edge13" class="edge">
<title>MovementSys&#45;&gt;ISystem</title>
<path fill="none" stroke="red" d="M3910.01,-93.64C3901.39,-91.66 3892.44,-89.69 3884,-88 3787.17,-68.62 3672.93,-51.06 3609.87,-41.83"/>
<polygon fill="red" stroke="red" points="3610.23,-38.34 3599.83,-40.36 3609.22,-45.27 3610.23,-38.34"/>
</g>
<!-- MovementSys&#45;&gt;ApplicationParameters -->
<g id="edge68" class="edge">
<title>MovementSys&#45;&gt;ApplicationParameters</title>
<path fill="none" stroke="blue" d="M3927.75,-122.06C3912.62,-129.74 3893.37,-138.1 3875,-142 3836.75,-150.12 1098.6,-148.21 1060,-142 1039.73,-138.74 1018.11,-132.27 999.53,-125.71"/>
<polygon fill="blue" stroke="blue" points="1000.7,-122.41 990.1,-122.28 998.31,-128.99 1000.7,-122.41"/>
</g>
<!-- MovieRenderSys -->
<g id="node27" class="node">
<title>MovieRenderSys</title>
<ellipse fill="none" stroke="black" cx="3029" cy="-106" rx="72.29" ry="18"/>
<text text-anchor="middle" x="3029" y="-102.3" font-family="Times,serif" font-size="14.00">MovieRenderSys</text>
</g>
<!-- MovieRenderSys&#45;&gt;MovieComp -->
<g id="edge69" class="edge">
<title>MovieRenderSys&#45;&gt;MovieComp</title>
<path fill="none" stroke="blue" d="M2957.09,-104.3C2773.87,-102.04 2292.96,-93.04 2137,-60 2128.84,-58.27 2120.36,-55.66 2112.33,-52.77"/>
<polygon fill="blue" stroke="blue" points="2113.39,-49.43 2102.8,-49.14 2110.9,-55.97 2113.39,-49.43"/>
</g>
<!-- MovieRenderSys&#45;&gt;Mediamap -->
<g id="edge15" class="edge">
<title>MovieRenderSys&#45;&gt;Mediamap</title>
<path fill="none" stroke="red" d="M2956.77,-104.8C2636.22,-103.69 1350.42,-96.98 1174,-60 1166.12,-58.35 1157.97,-55.72 1150.29,-52.77"/>
<polygon fill="red" stroke="red" points="1151.45,-49.47 1140.87,-48.92 1148.8,-55.94 1151.45,-49.47"/>
</g>
<!-- MovieRenderSys&#45;&gt;LoadComp -->
<g id="edge70" class="edge">
<title>MovieRenderSys&#45;&gt;LoadComp</title>
<path fill="none" stroke="blue" d="M2957.05,-103.94C2791.56,-101.01 2387.97,-90.83 2256,-60 2248.78,-58.31 2241.31,-55.81 2234.22,-53.03"/>
<polygon fill="blue" stroke="blue" points="2235.42,-49.73 2224.85,-49.11 2232.73,-56.19 2235.42,-49.73"/>
</g>
<!-- MovieRenderSys&#45;&gt;ISystem -->
<g id="edge14" class="edge">
<title>MovieRenderSys&#45;&gt;ISystem</title>
<path fill="none" stroke="red" d="M3081.37,-93.43C3091.19,-91.47 3101.38,-89.56 3111,-88 3256.34,-64.44 3429.65,-47.05 3512.77,-39.36"/>
<polygon fill="red" stroke="red" points="3513.29,-42.83 3522.93,-38.43 3512.65,-35.86 3513.29,-42.83"/>
</g>
<!-- MovieRenderSys&#45;&gt;Entitymap -->
<g id="edge71" class="edge">
<title>MovieRenderSys&#45;&gt;Entitymap</title>
<path fill="none" stroke="blue" d="M2957.28,-103.82C2699.9,-99.47 1798.5,-83.44 1055,-60 847.62,-53.46 601.39,-42.64 491.7,-37.66"/>
<polygon fill="blue" stroke="blue" points="491.66,-34.15 481.51,-37.2 491.34,-41.15 491.66,-34.15"/>
</g>
<!-- MediatoEntitymap -->
<g id="node32" class="node">
<title>MediatoEntitymap</title>
<ellipse fill="none" stroke="black" cx="508" cy="-106" rx="77.19" ry="18"/>
<text text-anchor="middle" x="508" y="-102.3" font-family="Times,serif" font-size="14.00">MediatoEntitymap</text>
</g>
<!-- MovieRenderSys&#45;&gt;MediatoEntitymap -->
<g id="edge72" class="edge">
<title>MovieRenderSys&#45;&gt;MediatoEntitymap</title>
<path fill="none" stroke="blue" d="M2957.04,-107.89C2708.52,-114.31 1863.29,-135.26 1165,-142 1102.67,-142.6 665.33,-153.12 604,-142 586.45,-138.82 567.93,-132.61 551.89,-126.24"/>
<polygon fill="blue" stroke="blue" points="552.83,-122.84 542.25,-122.27 550.17,-129.31 552.83,-122.84"/>
</g>
<!-- PersistentSys -->
<g id="node28" class="node">
<title>PersistentSys</title>
<ellipse fill="none" stroke="black" cx="3685" cy="-106" rx="57.69" ry="18"/>
<text text-anchor="middle" x="3685" y="-102.3" font-family="Times,serif" font-size="14.00">PersistentSys</text>
</g>
<!-- PersistentSys&#45;&gt;PositionComp -->
<g id="edge74" class="edge">
<title>PersistentSys&#45;&gt;PositionComp</title>
<path fill="none" stroke="blue" d="M3644.17,-93.21C3635.59,-91.14 3626.55,-89.25 3618,-88 3321.77,-44.73 3239.33,-114.68 2945,-60 2935.3,-58.2 2925.14,-55.4 2915.56,-52.32"/>
<polygon fill="blue" stroke="blue" points="2916.43,-48.92 2905.84,-49.04 2914.19,-55.55 2916.43,-48.92"/>
</g>
<!-- PersistentSys&#45;&gt;PersistentComp -->
<g id="edge73" class="edge">
<title>PersistentSys&#45;&gt;PersistentComp</title>
<path fill="none" stroke="blue" d="M3644.55,-93.12C3635.86,-91.02 3626.68,-89.15 3618,-88 3180.64,-30.24 2068.09,-132.87 1633,-60 1622.93,-58.31 1612.38,-55.53 1602.45,-52.43"/>
<polygon fill="blue" stroke="blue" points="1603.37,-49.05 1592.77,-49.24 1601.18,-55.7 1603.37,-49.05"/>
</g>
<!-- PersistentSys&#45;&gt;ISystem -->
<g id="edge16" class="edge">
<title>PersistentSys&#45;&gt;ISystem</title>
<path fill="none" stroke="red" d="M3658.31,-89.81C3639.68,-79.21 3614.71,-65 3594.85,-53.7"/>
<polygon fill="red" stroke="red" points="3596.56,-50.64 3586.14,-48.74 3593.1,-56.72 3596.56,-50.64"/>
</g>
<!-- PrintMovementSys -->
<g id="node29" class="node">
<title>PrintMovementSys</title>
<ellipse fill="none" stroke="black" cx="4116" cy="-106" rx="79.09" ry="18"/>
<text text-anchor="middle" x="4116" y="-102.3" font-family="Times,serif" font-size="14.00">PrintMovementSys</text>
</g>
<!-- PrintMovementSys&#45;&gt;PositionComp -->
<g id="edge75" class="edge">
<title>PrintMovementSys&#45;&gt;PositionComp</title>
<path fill="none" stroke="blue" d="M4060.66,-92.99C4049.56,-90.98 4037.95,-89.18 4027,-88 3787.86,-62.24 3181.82,-102.08 2945,-60 2935.09,-58.24 2924.7,-55.4 2914.95,-52.25"/>
<polygon fill="blue" stroke="blue" points="2916.04,-48.92 2905.44,-49.03 2913.79,-55.55 2916.04,-48.92"/>
</g>
<!-- PrintMovementSys&#45;&gt;ISystem -->
<g id="edge17" class="edge">
<title>PrintMovementSys&#45;&gt;ISystem</title>
<path fill="none" stroke="red" d="M4058.66,-93.39C4048.15,-91.45 4037.26,-89.56 4027,-88 3876.25,-65.04 3696.62,-47.26 3611.48,-39.41"/>
<polygon fill="red" stroke="red" points="3611.6,-35.9 3601.32,-38.47 3610.96,-42.87 3611.6,-35.9"/>
</g>
<!-- Helper -->
<g id="node30" class="node">
<title>Helper</title>
<ellipse fill="none" stroke="black" cx="638" cy="-106" rx="34.39" ry="18"/>
<text text-anchor="middle" x="638" y="-102.3" font-family="Times,serif" font-size="14.00">Helper</text>
</g>
<!-- Helper&#45;&gt;Mediamap -->
<g id="edge18" class="edge">
<title>Helper&#45;&gt;Mediamap</title>
<path fill="none" stroke="red" d="M663.57,-93.66C669.22,-91.5 675.24,-89.47 681,-88 811.57,-54.76 969.84,-42.11 1053.87,-37.5"/>
<polygon fill="red" stroke="red" points="1054.19,-40.98 1063.99,-36.96 1053.82,-33.99 1054.19,-40.98"/>
</g>
<!-- Helper&#45;&gt;Entitymap -->
<g id="edge19" class="edge">
<title>Helper&#45;&gt;Entitymap</title>
<path fill="none" stroke="red" d="M611.09,-94.36C605.46,-92.21 599.55,-89.99 594,-88 555.43,-74.17 511.19,-59.61 479.02,-49.26"/>
<polygon fill="red" stroke="red" points="480.03,-45.91 469.44,-46.19 477.89,-52.58 480.03,-45.91"/>
</g>
<!-- Entitymap&#45;&gt;EntityLoaderFactory -->
<g id="edge76" class="edge">
<title>Entitymap&#45;&gt;EntityLoaderFactory</title>
<path fill="none" stroke="blue" d="M397.79,-45.88C360.21,-57.17 300.91,-74.98 257.22,-88.11"/>
<polygon fill="blue" stroke="blue" points="256.16,-84.77 247.59,-91 258.18,-91.48 256.16,-84.77"/>
</g>
<!-- Entitymap&#45;&gt;EntityMacro -->
<g id="edge77" class="edge">
<title>Entitymap&#45;&gt;EntityMacro</title>
<path fill="none" stroke="blue" d="M400.15,-47.04C345.68,-66.17 235.53,-97.18 145,-74 130.58,-70.31 115.95,-63.11 103.61,-55.83"/>
<polygon fill="blue" stroke="blue" points="105.41,-52.83 95.06,-50.56 101.73,-58.79 105.41,-52.83"/>
</g>
<!-- Entitymap&#45;&gt;EntityMacroEnd -->
<g id="edge78" class="edge">
<title>Entitymap&#45;&gt;EntityMacroEnd</title>
<path fill="none" stroke="blue" d="M385.89,-34C355.59,-34 325.29,-34 295,-34"/>
<polygon fill="blue" stroke="blue" points="294.72,-30.5 284.72,-34 294.72,-37.5 294.72,-30.5"/>
</g>
<!-- MediatoEntitymap&#45;&gt;Mediamap -->
<g id="edge20" class="edge">
<title>MediatoEntitymap&#45;&gt;Mediamap</title>
<path fill="none" stroke="red" d="M563.56,-93.36C573.98,-91.4 584.8,-89.52 595,-88 761.08,-63.33 958.83,-46.56 1054.88,-39.21"/>
<polygon fill="red" stroke="red" points="1055.26,-42.69 1064.97,-38.45 1054.73,-35.71 1055.26,-42.69"/>
</g>
<!-- MediatoEntitymap&#45;&gt;Entitymap -->
<g id="edge21" class="edge">
<title>MediatoEntitymap&#45;&gt;Entitymap</title>
<path fill="none" stroke="red" d="M490.46,-88.41C480.83,-79.3 468.74,-67.87 458.23,-57.92"/>
<polygon fill="red" stroke="red" points="460.57,-55.32 450.9,-50.99 455.76,-60.4 460.57,-55.32"/>
</g>
<!-- MouseUtils&#45;&gt;Mediamap -->
<g id="edge22" class="edge">
<title>MouseUtils&#45;&gt;Mediamap</title>
<path fill="none" stroke="red" d="M398.16,-93.4C405.97,-91.32 414.2,-89.37 422,-88 653.15,-47.33 933.23,-37.87 1053.48,-35.67"/>
<polygon fill="red" stroke="red" points="1053.64,-39.16 1063.58,-35.49 1053.52,-32.16 1053.64,-39.16"/>
</g>
<!-- MouseUtils&#45;&gt;Entitymap -->
<g id="edge23" class="edge">
<title>MouseUtils&#45;&gt;Entitymap</title>
<path fill="none" stroke="red" d="M377.93,-88.76C387.49,-79.6 399.59,-68 410.1,-57.92"/>
<polygon fill="red" stroke="red" points="412.62,-60.35 417.41,-50.91 407.77,-55.3 412.62,-60.35"/>
</g>
<!-- SystemList&#45;&gt;ButtonSys -->
<g id="edge84" class="edge">
<title>SystemList&#45;&gt;ButtonSys</title>
<path fill="none" stroke="blue" d="M1161.57,-107.35C1377.38,-113.04 2242.78,-135.05 2954,-142 3019.33,-142.64 3037.69,-158.14 3101,-142 3112.93,-138.96 3125.04,-133.27 3135.56,-127.29"/>
<polygon fill="blue" stroke="blue" points="3137.58,-130.17 3144.36,-122.03 3133.99,-124.16 3137.58,-130.17"/>
</g>
<!-- SystemList&#45;&gt;ISystem -->
<g id="edge24" class="edge">
<title>SystemList&#45;&gt;ISystem</title>
<path fill="none" stroke="red" d="M1161.7,-104.05C1377.12,-99.97 2237.91,-83 2945,-60 3155.76,-53.14 3406.9,-42.06 3511.94,-37.3"/>
<polygon fill="red" stroke="red" points="3512.11,-40.8 3521.95,-36.84 3511.8,-33.8 3512.11,-40.8"/>
</g>
<!-- SystemList&#45;&gt;ClickableSys -->
<g id="edge85" class="edge">
<title>SystemList&#45;&gt;ClickableSys</title>
<path fill="none" stroke="blue" d="M1161.57,-107.35C1377.38,-113.04 2242.78,-135.05 2954,-142 3041.66,-142.86 3657.52,-161.45 3743,-142 3756.69,-138.88 3770.8,-132.94 3783.03,-126.77"/>
<polygon fill="blue" stroke="blue" points="3784.77,-129.81 3791.99,-122.05 3781.51,-123.62 3784.77,-129.81"/>
</g>
<!-- SystemList&#45;&gt;DialogSys -->
<g id="edge86" class="edge">
<title>SystemList&#45;&gt;DialogSys</title>
<path fill="none" stroke="blue" d="M1161.57,-107.35C1377.38,-113.04 2242.78,-135.05 2954,-142 3014.22,-142.59 3437.65,-156.88 3496,-142 3507.93,-138.96 3520.04,-133.27 3530.56,-127.29"/>
<polygon fill="blue" stroke="blue" points="3532.58,-130.17 3539.36,-122.03 3528.99,-124.16 3532.58,-130.17"/>
</g>
<!-- SystemList&#45;&gt;GameRenderSys -->
<g id="edge82" class="edge">
<title>SystemList&#45;&gt;GameRenderSys</title>
<path fill="none" stroke="blue" d="M1161.57,-107.35C1377.38,-113.04 2242.78,-135.05 2954,-142 3039.33,-142.83 3254.27,-158.46 3338,-142 3354.08,-138.84 3370.92,-132.72 3385.51,-126.41"/>
<polygon fill="blue" stroke="blue" points="3387.05,-129.55 3394.74,-122.26 3384.19,-123.16 3387.05,-129.55"/>
</g>
<!-- SystemList&#45;&gt;LoadingSys -->
<g id="edge83" class="edge">
<title>SystemList&#45;&gt;LoadingSys</title>
<path fill="none" stroke="blue" d="M1161.57,-107.35C1377.38,-113.04 2242.78,-135.05 2954,-142 3011.78,-142.56 3157.81,-155.43 3214,-142 3226.94,-138.91 3240.19,-133.05 3251.68,-126.94"/>
<polygon fill="blue" stroke="blue" points="3253.45,-129.97 3260.48,-122.04 3250.05,-123.85 3253.45,-129.97"/>
</g>
<!-- SystemList&#45;&gt;MovementSys -->
<g id="edge79" class="edge">
<title>SystemList&#45;&gt;MovementSys</title>
<path fill="none" stroke="blue" d="M1161.57,-107.35C1377.38,-113.04 2242.78,-135.05 2954,-142 3056.33,-143 3774.9,-163.24 3875,-142 3889.78,-138.86 3905.13,-132.84 3918.45,-126.6"/>
<polygon fill="blue" stroke="blue" points="3920.3,-129.59 3927.75,-122.06 3917.23,-123.3 3920.3,-129.59"/>
</g>
<!-- SystemList&#45;&gt;MovieRenderSys -->
<g id="edge81" class="edge">
<title>SystemList&#45;&gt;MovieRenderSys</title>
<path fill="none" stroke="blue" d="M1162.04,-106C1756.84,-106 2351.65,-106 2946.45,-106"/>
<polygon fill="blue" stroke="blue" points="2946.53,-109.5 2956.53,-106 2946.53,-102.5 2946.53,-109.5"/>
</g>
<!-- SystemList&#45;&gt;PersistentSys -->
<g id="edge87" class="edge">
<title>SystemList&#45;&gt;PersistentSys</title>
<path fill="none" stroke="blue" d="M1161.57,-107.35C1377.38,-113.04 2242.78,-135.05 2954,-142 3026.77,-142.71 3538,-157.97 3609,-142 3622.85,-138.89 3637.14,-132.95 3649.54,-126.77"/>
<polygon fill="blue" stroke="blue" points="3651.36,-129.77 3658.61,-122.05 3648.13,-123.56 3651.36,-129.77"/>
</g>
<!-- SystemList&#45;&gt;PrintMovementSys -->
<g id="edge80" class="edge">
<title>SystemList&#45;&gt;PrintMovementSys</title>
<path fill="none" stroke="blue" d="M1161.57,-107.35C1377.38,-113.04 2242.78,-135.05 2954,-142 3072.22,-143.15 3901.6,-162.7 4018,-142 4036.05,-138.79 4055.14,-132.5 4071.62,-126.06"/>
<polygon fill="blue" stroke="blue" points="4073.04,-129.26 4081,-122.27 4070.42,-122.77 4073.04,-129.26"/>
</g>
<!-- main -->
<g id="node36" class="node">
<title>main</title>
<ellipse fill="none" stroke="black" cx="912" cy="-250" rx="28.7" ry="18"/>
<text text-anchor="middle" x="912" y="-246.3" font-family="Times,serif" font-size="14.00">main</text>
</g>
<!-- main&#45;&gt;Size -->
<g id="edge25" class="edge">
<title>main&#45;&gt;Size</title>
<path fill="none" stroke="blue" d="M894,-235.9C859.31,-210.63 783.05,-155.1 742.9,-125.86"/>
<polygon fill="blue" stroke="blue" points="744.81,-122.93 734.67,-119.87 740.69,-128.58 744.81,-122.93"/>
</g>
<!-- main&#45;&gt;Application -->
<g id="edge26" class="edge">
<title>main&#45;&gt;Application</title>
<path fill="none" stroke="blue" d="M932.19,-237.13C949.94,-226.68 976.15,-211.26 997.11,-198.93"/>
<polygon fill="blue" stroke="blue" points="998.89,-201.95 1005.74,-193.86 995.34,-195.91 998.89,-201.95"/>
</g>
</g>
</svg>
